<?xml version="1.0" encoding="UTF-8"?>
<svg version="1.1" xmlns="http://www.w3.org/2000/svg" width="394" height="83">
<path d="M0 0 C0.70382813 -0.03738281 1.40765625 -0.07476562 2.1328125 -0.11328125 C6.23591108 -0.18192045 7.96927932 0.19243106 11.5234375 2.50390625 C14.29341774 5.42071926 16.19164825 8.16879982 18.125 11.6875 C18.72054687 12.75613281 19.31609375 13.82476562 19.9296875 14.92578125 C20.36539063 15.73402344 20.80109375 16.54226562 21.25 17.375 C24.83209631 14.16196816 26.91722348 10.07725053 29.3359375 5.96875 C31.56774353 2.9444251 32.74382957 1.76641061 36.25 0.375 C39.98750532 -0.04729151 43.67992001 -0.04366458 47.4375 0 C48.44748047 -0.01160156 49.45746094 -0.02320313 50.49804688 -0.03515625 C51.9434082 -0.02935547 51.9434082 -0.02935547 53.41796875 -0.0234375 C54.73704224 -0.01836182 54.73704224 -0.01836182 56.08276367 -0.01318359 C56.79795166 0.11491699 57.51313965 0.24301758 58.25 0.375 C59.24 1.86 59.24 1.86 60.25 3.375 C59.13147781 5.35783479 58.00498675 7.33617623 56.875 9.3125 C56.24851562 10.41464844 55.62203125 11.51679688 54.9765625 12.65234375 C53.25 15.375 53.25 15.375 51.25 16.375 C50.64027344 16.31699219 50.03054687 16.25898438 49.40234375 16.19921875 C46.5363279 16.02230419 44.90936168 16.21589645 42.25 17.375 C38.00739923 22.4143029 33.31911806 28.74312701 32.25 35.375 C34.70273551 33.14265522 36.16052395 30.93379661 37.6875 28 C39.55637763 24.41027465 41.29475603 21.1734151 44.25 18.375 C47.21672677 18.00266983 49.56856241 17.8941754 52.5 18.0625 C53.24507813 18.08505859 53.99015625 18.10761719 54.7578125 18.13085938 C56.589409 18.18956439 58.41996653 18.27924243 60.25 18.375 C61 20.0625 61 20.0625 61.25 22.375 C59.5546875 24.7578125 59.5546875 24.7578125 57.25 27.375 C55.9296413 29.3141042 54.64084964 31.27488053 53.375 33.25 C52.81776245 34.11359131 52.81776245 34.11359131 52.24926758 34.99462891 C49.6380487 39.07971259 47.14712418 43.22586097 44.69140625 47.40625 C44.07185059 48.45184082 43.45229492 49.49743164 42.81396484 50.57470703 C41.57120999 52.6776565 40.34085428 54.78798689 39.12353516 56.90576172 C38.55038574 57.87271973 37.97723633 58.83967773 37.38671875 59.8359375 C36.87842529 60.71040527 36.37013184 61.58487305 35.84643555 62.48583984 C35.31961182 63.1092627 34.79278809 63.73268555 34.25 64.375 C32.93 64.375 31.61 64.375 30.25 64.375 C30.25 63.385 30.25 62.395 30.25 61.375 C29.59 61.375 28.93 61.375 28.25 61.375 C26.9609375 59.73046875 26.9609375 59.73046875 25.625 57.5625 C25.17898437 56.85480469 24.73296875 56.14710937 24.2734375 55.41796875 C23.25 53.375 23.25 53.375 23.25 50.375 C20.05750523 53.34147745 17.7907013 56.42463636 15.5 60.125 C14.88640625 61.10984375 14.2728125 62.0946875 13.640625 63.109375 C13.18171875 63.85703125 12.7228125 64.6046875 12.25 65.375 C7.95161028 63.89114609 6.42070354 60.83038456 4.3125 57.0625 C3.53173186 55.71511052 2.74906125 54.36882228 1.96484375 53.0234375 C1.53800293 52.28706055 1.11116211 51.55068359 0.67138672 50.79199219 C-2.02151698 46.21285329 -4.82767117 41.70331636 -7.625 37.1875 C-8.18437256 36.27895264 -8.74374512 35.37040527 -9.32006836 34.43432617 C-10.11682983 33.14619019 -10.11682983 33.14619019 -10.9296875 31.83203125 C-11.40132324 31.06866455 -11.87295898 30.30529785 -12.35888672 29.51879883 C-13.70805432 27.33789513 -13.70805432 27.33789513 -15.42626953 25.40893555 C-16.75 23.375 -16.75 23.375 -16.75 18.375 C-13.12 18.045 -9.49 17.715 -5.75 17.375 C-6.53375 16.67375 -7.3175 15.9725 -8.125 15.25 C-10.89879558 12.21203341 -12.07637238 10.41676574 -12.75 6.375 C-9.90431619 -0.02778858 -6.44943231 0.12713935 0 0 Z M-1.75 16.375 C-1.75 17.035 -1.75 17.695 -1.75 18.375 C-0.43 18.705 0.89 19.035 2.25 19.375 C1.92 18.385 1.59 17.395 1.25 16.375 C0.26 16.375 -0.73 16.375 -1.75 16.375 Z M2.25 20.375 C3.25 22.375 3.25 22.375 3.25 22.375 Z M3.25 22.375 C4.66167747 27.63670694 6.99850232 31.09671358 10.25 35.375 C11.57213005 32.48518025 11.57213005 32.48518025 10.359375 30.1484375 C9.91078125 29.35695313 9.4621875 28.56546875 9 27.75 C8.56171875 26.95335937 8.1234375 26.15671875 7.671875 25.3359375 C6.32359494 23.07597865 6.32359494 23.07597865 3.25 22.375 Z " fill="#61B047" transform="translate(39.75,8.625)"/>
<path d="M0 0 C0.99 0.66 1.98 1.32 3 2 C3 2.66 3 3.32 3 4 C3.721875 3.505 4.44375 3.01 5.1875 2.5 C11.29507521 -0.56832945 19.76493961 0.22815812 26.25 1.8125 C27.61125 2.4003125 27.61125 2.4003125 29 3 C29.495 4.485 29.495 4.485 30 6 C30.66 6.66 31.32 7.32 32 8 C33.3907863 14.89118926 33.91279873 21.00852695 30 27 C25.81506138 31.43997643 21.43006095 32.78182401 15.41796875 33.0546875 C10.78513563 32.94990614 7.55544747 32.41829378 4.05078125 29.22265625 C-1.45141826 23.22938822 -1.45141826 23.22938822 -2 19 C-1.67 18.34 -1.34 17.68 -1 17 C-1.66 16.67 -2.32 16.34 -3 16 C-2.34 16 -1.68 16 -1 16 C-1 15.34 -1 14.68 -1 14 C-3.22881209 14.83905159 -3.22881209 14.83905159 -3.9296875 17.29296875 C-4.24164063 18.24816406 -4.55359375 19.20335938 -4.875 20.1875 C-8.56791339 30.78395669 -8.56791339 30.78395669 -13 33 C-15.3329866 33.04022391 -17.66706666 33.04320247 -20 33 C-23.64074657 26.29844878 -26.4480354 19.43032634 -29.03173828 12.27148438 C-30.06443973 8.87523676 -30.06443973 8.87523676 -32 6 C-32.04080783 4.00041636 -32.04254356 1.99954746 -32 0 C-28.87503914 -0.49018994 -26.10813005 -0.66230288 -23 0 C-18.20376125 4.28235602 -16.94666559 10.89612634 -16 17 C-15.34 17 -14.68 17 -14 17 C-13.80664062 16.26394531 -13.61328125 15.52789063 -13.4140625 14.76953125 C-13.15367187 13.79371094 -12.89328125 12.81789063 -12.625 11.8125 C-12.36976563 10.84957031 -12.11453125 9.88664062 -11.8515625 8.89453125 C-11.0435486 6.14802527 -10.25372394 3.57533906 -9 1 C-5.37169613 -0.69835501 -3.84489875 -1.28163292 0 0 Z M2 4 C1.01 4.495 1.01 4.495 0 5 C-0.65555119 7.52733235 -0.65555119 7.52733235 -1 10 C0.32 8.68 1.64 7.36 3 6 C2.67 5.34 2.34 4.68 2 4 Z M11 11 C11 11.66 11 12.32 11 13 C10.34 13 9.68 13 9 13 C8.52598236 17.07655174 8.68979389 18.58343751 11.1875 21.9375 C13.77151858 24.2587216 13.77151858 24.2587216 16.625 24 C19.893935 22.62360631 21.43543585 21.34626837 22.8125 18.0625 C23.05456865 15.39974486 22.47279269 14.20918904 21 12 C17.45557407 9.63704938 14.89784014 9.05107993 11 11 Z " fill="#0F462A" transform="translate(145,11)"/>
<path d="M0 0 C1.65689791 2.71128749 2.808563 5.09067708 4 8 C4.89295707 9.91800838 5.78887331 11.8346414 6.6875 13.75 C8.1030423 16.81773874 9.29650794 19.69126811 10 23 C10.66 23 11.32 23 12 23 C11.62875 22.38125 11.2575 21.7625 10.875 21.125 C9.57120251 16.46858039 10.52412352 12.54689217 12 8 C14 4.875 14 4.875 16 3 C16.66 3 17.32 3 18 3 C18.33 2.34 18.66 1.68 19 1 C24.52647414 -0.84215805 31.0358526 -1.03316553 36.56640625 0.89453125 C38.75 2 38.75 2 42 4 C40.8141763 7.37503669 39.72426311 9.64722731 37 12 C35.948125 11.67 34.89625 11.34 33.8125 11 C30.61126643 10.16033218 28.2588992 9.80249096 25 10 C24.67 10.66 24.34 11.32 24 12 C23.34 12 22.68 12 22 12 C21.67 13.98 21.34 15.96 21 18 C21.66 18 22.32 18 23 18 C23.66 19.32 24.32 20.64 25 22 C28.62885324 22.15149298 28.62885324 22.15149298 32 21 C32 18.69 32 16.38 32 14 C34.97 14.33 37.94 14.66 41 15 C41.495 17.97 41.495 17.97 42 21 C42.33 21 42.66 21 43 21 C43 22.98 43 24.96 43 27 C37.16148212 31.67081431 30.98650232 31.75654049 23.78125 31.47265625 C18.73764742 30.84220593 16.54575857 29.54575857 13 26 C13 26.99 13 27.98 13 29 C12.67 29.66 12.34 30.32 12 31 C8.91688325 31.82216447 6.77295365 32.22979703 3.6875 31.3125 C1.58281093 29.67551961 1.52368261 28.54582338 1 26 C-6.5616505 25.92008332 -6.5616505 25.92008332 -12.75 29.625 C-13.4925 30.40875 -14.235 31.1925 -15 32 C-18.8125 31.8125 -18.8125 31.8125 -22 31 C-21.47953099 26.52396647 -20.34954171 23.79541353 -18 20 C-16.3839921 16.28537551 -15 13.08169197 -15 9 C-14.34 8.67 -13.68 8.34 -13 8 C-12.731875 7.05125 -12.46375 6.1025 -12.1875 5.125 C-11 2 -11 2 -8.75 0.0625 C-5.1655318 -1.32240817 -3.58562032 -1.44950609 0 0 Z M-5 13 C-4 16 -4 16 -4 16 Z " fill="#0E4328" transform="translate(224,12)"/>
<path d="M0 0 C2.0234375 0.78515625 2.0234375 0.78515625 3.296875 2.8515625 C3.53664062 3.48964844 3.77640625 4.12773438 4.0234375 4.78515625 C5.0134375 4.45515625 6.0034375 4.12515625 7.0234375 3.78515625 C10.32698833 4.1880283 11.63224029 4.39395904 14.0234375 6.78515625 C14.5596875 6.10453125 15.0959375 5.42390625 15.6484375 4.72265625 C18.0234375 2.78515625 18.0234375 2.78515625 20.5234375 3.03515625 C21.6784375 3.28265625 22.8334375 3.53015625 24.0234375 3.78515625 C27.12528115 3.79748146 30.21618222 3.72249132 33.31640625 3.625 C36.0234375 3.78515625 36.0234375 3.78515625 39.0234375 5.78515625 C42.19878793 5.36177619 45.07856276 4.01218739 48.0234375 2.78515625 C48.5184375 3.28015625 48.5184375 3.28015625 49.0234375 3.78515625 C52.09902613 3.85762962 55.16259153 3.78131064 58.23828125 3.72265625 C61.0234375 3.78515625 61.0234375 3.78515625 63.0234375 4.78515625 C63.3534375 4.12515625 63.6834375 3.46515625 64.0234375 2.78515625 C65.0134375 2.12515625 66.0034375 1.46515625 67.0234375 0.78515625 C68.0134375 1.28015625 68.0134375 1.28015625 69.0234375 1.78515625 C69.0234375 2.44515625 69.0234375 3.10515625 69.0234375 3.78515625 C70.0134375 4.11515625 71.0034375 4.44515625 72.0234375 4.78515625 C71.6934375 6.43515625 71.3634375 8.08515625 71.0234375 9.78515625 C70.3634375 9.78515625 69.7034375 9.78515625 69.0234375 9.78515625 C69.0234375 10.77515625 69.0234375 11.76515625 69.0234375 12.78515625 C70.0134375 13.11515625 71.0034375 13.44515625 72.0234375 13.78515625 C71.6934375 14.44515625 71.3634375 15.10515625 71.0234375 15.78515625 C67.9609375 16.41015625 67.9609375 16.41015625 65.0234375 16.78515625 C64.5284375 12.82515625 64.5284375 12.82515625 64.0234375 8.78515625 C62.0434375 8.78515625 60.0634375 8.78515625 58.0234375 8.78515625 C57.6934375 10.10515625 57.3634375 11.42515625 57.0234375 12.78515625 C59.9934375 12.29015625 59.9934375 12.29015625 63.0234375 11.78515625 C63.5184375 13.27015625 63.5184375 13.27015625 64.0234375 14.78515625 C59.54166182 16.68991091 56.61097849 16.77401244 51.9609375 16.0078125 C49.84047441 15.6738483 49.84047441 15.6738483 47.0234375 16.28515625 C43.11401216 16.93672714 39.93317096 16.39183903 36.0234375 15.78515625 C36.0234375 13.14515625 36.0234375 10.50515625 36.0234375 7.78515625 C35.0334375 7.78515625 34.0434375 7.78515625 33.0234375 7.78515625 C32.6934375 10.42515625 32.3634375 13.06515625 32.0234375 15.78515625 C31.0334375 15.78515625 30.0434375 15.78515625 29.0234375 15.78515625 C28.5284375 13.80515625 28.5284375 13.80515625 28.0234375 11.78515625 C27.9203125 12.42453125 27.8171875 13.06390625 27.7109375 13.72265625 C27.4840625 14.40328125 27.2571875 15.08390625 27.0234375 15.78515625 C26.0334375 16.11515625 25.0434375 16.44515625 24.0234375 16.78515625 C22.7034375 14.14515625 21.3834375 11.50515625 20.0234375 8.78515625 C19.6934375 11.09515625 19.3634375 13.40515625 19.0234375 15.78515625 C17.9509375 15.76453125 16.8784375 15.74390625 15.7734375 15.72265625 C12.27024329 15.62662262 12.27024329 15.62662262 9.9609375 16.34765625 C8.0234375 16.78515625 8.0234375 16.78515625 5.1484375 16.22265625 C1.98525242 15.53787017 1.98525242 15.53787017 -1.0390625 16.84765625 C-3.9765625 17.78515625 -3.9765625 17.78515625 -6.6640625 17.03515625 C-8.9765625 15.78515625 -8.9765625 15.78515625 -11.9765625 13.78515625 C-11.78364559 9.35771307 -11.41094727 5.69012452 -9.4765625 1.66015625 C-6.12342325 -0.85469819 -4.03982077 -0.47645727 0 0 Z M-4.9765625 4.78515625 C-5.6365625 6.43515625 -6.2965625 8.08515625 -6.9765625 9.78515625 C-5.9865625 10.77515625 -4.9965625 11.76515625 -3.9765625 12.78515625 C-1.6665625 12.12515625 0.6434375 11.46515625 3.0234375 10.78515625 C3.0234375 9.46515625 3.0234375 8.14515625 3.0234375 6.78515625 C-0.20447805 4.63321255 -1.26057059 4.58429182 -4.9765625 4.78515625 Z M22.0234375 8.78515625 C23.0234375 10.78515625 23.0234375 10.78515625 23.0234375 10.78515625 Z M7.0234375 9.78515625 C7.3534375 10.77515625 7.6834375 11.76515625 8.0234375 12.78515625 C8.0234375 11.79515625 8.0234375 10.80515625 8.0234375 9.78515625 C7.6934375 9.78515625 7.3634375 9.78515625 7.0234375 9.78515625 Z M45.0234375 11.78515625 C49.0234375 12.78515625 49.0234375 12.78515625 49.0234375 12.78515625 Z " fill="#19321E" transform="translate(126.9765625,53.21484375)"/>
<path d="M0 0 C0.72960937 0.04189453 1.45921875 0.08378906 2.2109375 0.12695312 C2.95601562 0.14951172 3.70109375 0.17207031 4.46875 0.1953125 C6.3003465 0.25401752 8.13090403 0.34369556 9.9609375 0.43945312 C10.7109375 2.12695313 10.7109375 2.12695313 10.9609375 4.43945312 C9.265625 6.82226563 9.265625 6.82226563 6.9609375 9.43945312 C5.6405788 11.37855733 4.35178714 13.33933365 3.0859375 15.31445312 C2.52869995 16.17804443 2.52869995 16.17804443 1.96020508 17.05908203 C-0.6510138 21.14416572 -3.14193832 25.2903141 -5.59765625 29.47070312 C-6.21721191 30.51629395 -6.83676758 31.56188477 -7.47509766 32.63916016 C-8.71785251 34.74210962 -9.94820822 36.85244001 -11.16552734 38.97021484 C-11.73867676 39.93717285 -12.31182617 40.90413086 -12.90234375 41.90039062 C-13.41063721 42.7748584 -13.91893066 43.64932617 -14.44262695 44.55029297 C-14.96945068 45.17371582 -15.49627441 45.79713867 -16.0390625 46.43945312 C-17.3590625 46.43945312 -18.6790625 46.43945312 -20.0390625 46.43945312 C-20.0390625 45.44945312 -20.0390625 44.45945313 -20.0390625 43.43945312 C-20.6990625 43.43945312 -21.3590625 43.43945312 -22.0390625 43.43945312 C-23.328125 41.79492188 -23.328125 41.79492188 -24.6640625 39.62695312 C-25.11007813 38.91925781 -25.55609375 38.2115625 -26.015625 37.48242188 C-27.0390625 35.43945312 -27.0390625 35.43945312 -27.0390625 32.43945312 C-28.5240625 32.93445312 -28.5240625 32.93445312 -30.0390625 33.43945312 C-29.40990118 30.02178669 -28.08539004 27.77210663 -26.1015625 24.93945312 C-24.17617464 22.17673442 -22.47369674 19.4889172 -21.0390625 16.43945312 C-19.7190625 16.76945312 -18.3990625 17.09945312 -17.0390625 17.43945312 C-16.58015625 16.63121094 -16.12125 15.82296875 -15.6484375 14.99023438 C-15.03484375 13.92160156 -14.42125 12.85296875 -13.7890625 11.75195312 C-13.18578125 10.69621094 -12.5825 9.64046875 -11.9609375 8.55273438 C-11.32671875 7.52535156 -10.6925 6.49796875 -10.0390625 5.43945312 C-9.471875 4.49070312 -8.9046875 3.54195312 -8.3203125 2.56445312 C-5.56044712 -0.00638038 -3.70641108 -0.08423662 0 0 Z " fill="#076239" transform="translate(90.0390625,26.560546875)"/>
<path d="M0 0 C0.98871094 -0.02578125 1.97742188 -0.0515625 2.99609375 -0.078125 C3.84300781 0.03015625 4.68992187 0.1384375 5.5625 0.25 C6.2225 1.24 6.8825 2.23 7.5625 3.25 C9.61253955 4.44232613 9.61253955 4.44232613 11.5625 5.25 C12.5525 4.59 13.5425 3.93 14.5625 3.25 C15.5525 3.58 16.5425 3.91 17.5625 4.25 C18.18125 4.085 18.8 3.92 19.4375 3.75 C22.09523123 3.12465147 23.91781043 3.65494485 26.5625 4.25 C29.54744298 4.25 32.24541805 4.1042306 35.1875 3.75 C37.3382353 3.4927692 39.39653806 3.25 41.5625 3.25 C42.5525 3.229375 43.5425 3.20875 44.5625 3.1875 C47.5625 3.25 47.5625 3.25 49.5625 4.25 C49.5625 3.26 49.5625 2.27 49.5625 1.25 C50.5525 0.92 51.5425 0.59 52.5625 0.25 C53.5525 0.91 54.5425 1.57 55.5625 2.25 C55.5625 2.91 55.5625 3.57 55.5625 4.25 C56.655625 4.064375 57.74875 3.87875 58.875 3.6875 C62.5625 3.25 62.5625 3.25 65.5625 4.25 C65.5625 4.91 65.5625 5.57 65.5625 6.25 C66.5525 6.745 66.5525 6.745 67.5625 7.25 C65.6875 14.125 65.6875 14.125 64.5625 15.25 C62.44477757 15.53878033 60.3171438 15.75650378 58.1875 15.9375 C56.44339844 16.09798828 56.44339844 16.09798828 54.6640625 16.26171875 C51.5625 16.25 51.5625 16.25 48.5625 14.25 C48.8925 11.94 49.2225 9.63 49.5625 7.25 C47.5825 8.24 47.5825 8.24 45.5625 9.25 C45.5625 11.23 45.5625 13.21 45.5625 15.25 C44.77875 15.064375 43.995 14.87875 43.1875 14.6875 C40.59160225 13.99037734 40.59160225 13.99037734 38.5625 15.25 C37.18701844 15.33308638 35.80764204 15.35736016 34.4296875 15.34765625 C33.62402344 15.34443359 32.81835938 15.34121094 31.98828125 15.33789062 C31.14652344 15.32951172 30.30476563 15.32113281 29.4375 15.3125 C28.16326172 15.30573242 28.16326172 15.30573242 26.86328125 15.29882812 C24.76299091 15.28702874 22.6627367 15.26909306 20.5625 15.25 C20.5625 16.57 20.5625 17.89 20.5625 19.25 C19.2425 19.25 17.9225 19.25 16.5625 19.25 C16.5625 17.93 16.5625 16.61 16.5625 15.25 C15.2425 15.58 13.9225 15.91 12.5625 16.25 C12.5625 15.59 12.5625 14.93 12.5625 14.25 C11.82 14.600625 11.0775 14.95125 10.3125 15.3125 C4.95280338 16.65242416 0.00171276 15.90129732 -5.4375 15.25 C-6.35490621 12.12645029 -6.57210306 9.31313562 -6.5625 6.0625 C-6.56507813 5.18207031 -6.56765625 4.30164062 -6.5703125 3.39453125 C-6.30869441 -0.82983139 -3.65403171 0.05702 0 0 Z M-0.4375 4.25 C-0.1075 4.91 0.2225 5.57 0.5625 6.25 C1.5525 6.25 2.5425 6.25 3.5625 6.25 C2.42945008 9.64914975 1.43731525 10.30254451 -1.4375 12.25 C-0.15875 12.270625 1.12 12.29125 2.4375 12.3125 C3.15679687 12.32410156 3.87609375 12.33570312 4.6171875 12.34765625 C6.64435404 12.37649242 6.64435404 12.37649242 8.5625 11.25 C7.94972388 8.28824877 7.30877478 6.86941217 5.5625 4.25 C2.47884129 3.9997843 2.47884129 3.9997843 -0.4375 4.25 Z M53.5625 7.25 C53.5625 7.91 53.5625 8.57 53.5625 9.25 C54.2225 8.92 54.8825 8.59 55.5625 8.25 C54.9025 7.92 54.2425 7.59 53.5625 7.25 Z M22.5625 8.25 C22.2325 9.57 21.9025 10.89 21.5625 12.25 C22.5525 11.92 23.5425 11.59 24.5625 11.25 C24.2325 10.26 23.9025 9.27 23.5625 8.25 C23.2325 8.25 22.9025 8.25 22.5625 8.25 Z M13.5625 9.25 C13.8925 10.24 14.2225 11.23 14.5625 12.25 C15.2225 12.25 15.8825 12.25 16.5625 12.25 C16.2325 11.26 15.9025 10.27 15.5625 9.25 C14.9025 9.25 14.2425 9.25 13.5625 9.25 Z M33.5625 11.25 C37.5625 12.25 37.5625 12.25 37.5625 12.25 Z " fill="#172D1A" transform="translate(259.4375,53.75)"/>
<path d="M0 0 C0.78246094 -0.01224609 1.56492187 -0.02449219 2.37109375 -0.03710938 C7.70210167 -0.05037059 12.25272311 0.70473564 17.375 2.1875 C17.429138 4.43723447 17.46785491 6.68734383 17.5 8.9375 C17.52320313 10.19046875 17.54640625 11.4434375 17.5703125 12.734375 C17.39037302 15.91570492 17.06498582 17.55271896 15.375 20.1875 C14.715 20.1875 14.055 20.1875 13.375 20.1875 C13.375 20.8475 13.375 21.5075 13.375 22.1875 C14.365 22.5175 15.355 22.8475 16.375 23.1875 C17.32421875 25.03515625 17.32421875 25.03515625 18.0625 27.25 C18.31386719 27.98347656 18.56523437 28.71695313 18.82421875 29.47265625 C19.00597656 30.03855469 19.18773437 30.60445312 19.375 31.1875 C17.71805915 31.56622934 16.04843448 31.89000054 14.375 32.1875 C13.1375 32.435 13.1375 32.435 11.875 32.6875 C8.26816248 31.9661325 7.27215553 29.87370796 5.29296875 26.9140625 C4.375 25.1875 4.375 25.1875 4.375 23.1875 C3.055 23.1875 1.735 23.1875 0.375 23.1875 C0.375 25.4975 0.375 27.8075 0.375 30.1875 C-3.5884755 32.77900321 -4.28153925 32.07807679 -9.625 31.1875 C-9.955 21.2875 -10.285 11.3875 -10.625 1.1875 C-7.31074733 -0.46962633 -3.63983364 0.00291187 0 0 Z M0.375 8.1875 C0.375 10.4975 0.375 12.8075 0.375 15.1875 C2.355 15.1875 4.335 15.1875 6.375 15.1875 C7.035 13.8675 7.695 12.5475 8.375 11.1875 C7.18976003 9.58335785 7.18976003 9.58335785 5.375 8.1875 C2.74929296 7.93680087 2.74929296 7.93680087 0.375 8.1875 Z " fill="#0E492D" transform="translate(305.625,11.8125)"/>
<path d="M0 0 C0.9583374 0.00523682 1.9166748 0.01047363 2.90405273 0.01586914 C4.45576172 0.02070313 4.45576172 0.02070313 6.03881836 0.02563477 C7.12743164 0.03401367 8.21604492 0.04239258 9.33764648 0.05102539 C10.97636719 0.05779297 10.97636719 0.05779297 12.64819336 0.06469727 C15.35723144 0.07652713 18.06616248 0.09300996 20.77514648 0.11352539 C21.57467786 3.40048772 21.87173584 4.82375731 20.77514648 8.11352539 C14.34014648 8.60852539 14.34014648 8.60852539 7.77514648 9.11352539 C8.10514648 9.77352539 8.43514648 10.43352539 8.77514648 11.11352539 C12.07514648 11.11352539 15.37514648 11.11352539 18.77514648 11.11352539 C20.95439177 15.47201596 20.95439177 15.47201596 20.18139648 18.23852539 C18.77514648 20.11352539 18.77514648 20.11352539 16.17358398 20.72290039 C15.17584961 20.76930664 14.17811523 20.81571289 13.15014648 20.86352539 C12.14725586 20.92024414 11.14436523 20.97696289 10.11108398 21.03540039 C9.34022461 21.06118164 8.56936523 21.08696289 7.77514648 21.11352539 C7.77514648 21.44352539 7.77514648 21.77352539 7.77514648 22.11352539 C10.06623698 22.30793908 12.35804986 22.49385675 14.65014648 22.67602539 C15.92631836 22.78043945 17.20249023 22.88485352 18.51733398 22.99243164 C21.66158591 23.37035907 21.66158591 23.37035907 23.77514648 22.11352539 C23.77514648 23.10352539 23.77514648 24.09352539 23.77514648 25.11352539 C23.11514648 25.11352539 22.45514648 25.11352539 21.77514648 25.11352539 C21.77514648 27.09352539 21.77514648 29.07352539 21.77514648 31.11352539 C17.79599489 31.14239523 13.81686995 31.16027945 9.83764648 31.17602539 C8.13318359 31.18859375 8.13318359 31.18859375 6.39428711 31.20141602 C5.31469727 31.20463867 4.23510742 31.20786133 3.12280273 31.21118164 C1.62245483 31.21903687 1.62245483 31.21903687 0.09179688 31.22705078 C-2.22485352 31.11352539 -2.22485352 31.11352539 -3.22485352 30.11352539 C-3.32488641 27.97999365 -3.35566399 25.84314997 -3.35766602 23.70727539 C-3.35895508 22.40661133 -3.36024414 21.10594727 -3.36157227 19.76586914 C-3.35947754 19.08508301 -3.35738281 18.40429688 -3.35522461 17.70288086 C-3.34987592 15.62224024 -3.35517032 13.5418155 -3.36157227 11.46118164 C-3.3602832 10.16051758 -3.35899414 8.85985352 -3.35766602 7.51977539 C-3.35653809 6.31643555 -3.35541016 5.1130957 -3.35424805 3.87329102 C-3.18025316 0.16227562 -3.18025316 0.16227562 0 0 Z " fill="#09492B" transform="translate(271.224853515625,11.886474609375)"/>
<path d="M0 0 C0.70382813 -0.03738281 1.40765625 -0.07476562 2.1328125 -0.11328125 C6.08219067 -0.17934891 8.51820437 0.1783955 11.6484375 2.69140625 C14.31004769 5.43694109 15.78032288 7.86410466 17.25 11.375 C12.5 14.25 12.5 14.25 10.25 15.375 C9.59 14.715 8.93 14.055 8.25 13.375 C7.26 13.87 7.26 13.87 6.25 14.375 C6.58 15.035 6.91 15.695 7.25 16.375 C6.26 16.375 5.27 16.375 4.25 16.375 C4.58 17.695 4.91 19.015 5.25 20.375 C3.93 20.375 2.61 20.375 1.25 20.375 C2.60580678 26.04629279 2.60580678 26.04629279 6.25 30.375 C6.25 31.035 6.25 31.695 6.25 32.375 C5.4765625 32.5296875 5.4765625 32.5296875 4.6875 32.6875 C0.44264692 33.88476625 -3.60265925 35.22765925 -6.75 38.375 C-8.43120746 35.98828584 -10.0947364 33.59210591 -11.75 31.1875 C-12.22695313 30.51396484 -12.70390625 29.84042969 -13.1953125 29.14648438 C-13.64648438 28.48583984 -14.09765625 27.82519531 -14.5625 27.14453125 C-14.98144531 26.54229736 -15.40039062 25.94006348 -15.83203125 25.31958008 C-16.75 23.375 -16.75 23.375 -16.75 18.375 C-13.12 18.045 -9.49 17.715 -5.75 17.375 C-6.53375 16.67375 -7.3175 15.9725 -8.125 15.25 C-10.89879558 12.21203341 -12.07637238 10.41676574 -12.75 6.375 C-9.90431619 -0.02778858 -6.44943231 0.12713935 0 0 Z M-1.75 16.375 C-1.75 17.035 -1.75 17.695 -1.75 18.375 C-0.43 18.705 0.89 19.035 2.25 19.375 C1.92 18.385 1.59 17.395 1.25 16.375 C0.26 16.375 -0.73 16.375 -1.75 16.375 Z " fill="#93C23E" transform="translate(39.75,8.625)"/>
<path d="M0 0 C1.80683568 1.98250026 3.21882619 4.01267444 4.640625 6.28515625 C5.08921875 6.85105469 5.5378125 7.41695312 6 8 C6.99 8 7.98 8 9 8 C9.28875 7.05125 9.5775 6.1025 9.875 5.125 C11 2 11 2 13 0 C15.1640625 -0.4140625 15.1640625 -0.4140625 17.625 -0.625 C18.85089844 -0.73714844 18.85089844 -0.73714844 20.1015625 -0.8515625 C20.72804688 -0.90054687 21.35453125 -0.94953125 22 -1 C22.66 0.32 23.32 1.64 24 3 C23.41605469 3.54140625 22.83210938 4.0828125 22.23046875 4.640625 C16.27664644 10.93853862 12.30968745 18.32875141 12 27 C11.6875 29.375 11.6875 29.375 11 31 C8.04454879 33.11103658 5.56144099 33.19785783 2 33 C0.68842484 30.37684968 1.10350012 28.76966564 1.4375 25.875 C1.53933594 24.96492188 1.64117187 24.05484375 1.74609375 23.1171875 C1.82988281 22.41851562 1.91367187 21.71984375 2 21 C1.34 20.67 0.68 20.34 0 20 C-1.01847486 18.00934459 -2.01517978 16.00751815 -3 14 C-3.680625 12.989375 -4.36125 11.97875 -5.0625 10.9375 C-7.50051067 7.24116124 -9 4.45347393 -9 0 C-5.64737261 -1.6763137 -3.554469 -1.00709955 0 0 Z " fill="#104329" transform="translate(354,12)"/>
<path d="M0 0 C3.3 0.33 6.6 0.66 10 1 C10.28875 1.969375 10.5775 2.93875 10.875 3.9375 C11.64214682 7.10664203 11.64214682 7.10664203 14 8 C14.33 8.99 14.66 9.98 15 11 C15.391875 10.113125 15.78375 9.22625 16.1875 8.3125 C18.12546749 4.77069734 19.83286924 2.50424292 23 0 C26.3125 -0.3125 26.3125 -0.3125 29 0 C30.125 1.75 30.125 1.75 31 4 C30.1875 6.125 30.1875 6.125 29 8 C28.67 8.66 28.34 9.32 28 10 C27.34 10 26.68 10 26 10 C25.896875 11.093125 25.79375 12.18625 25.6875 13.3125 C25.00711368 16.9618448 24.76419369 17.81168 22 20 C20.79727181 22.40545638 20.89928528 23.94996953 20.9375 26.625 C20.94652344 27.44226563 20.95554688 28.25953125 20.96484375 29.1015625 C20.97644531 29.72804688 20.98804688 30.35453125 21 31 C15.70769231 33.21538462 15.70769231 33.21538462 12.125 32.125 C11.42375 31.75375 10.7225 31.3825 10 31 C10.03480469 30.40832031 10.06960937 29.81664063 10.10546875 29.20703125 C10.27782035 24.17600591 10.09834512 21.1708492 7 17 C6.67 16.29875 6.34 15.5975 6 14.875 C5.07712317 12.92547649 5.07712317 12.92547649 3.4375 11.4375 C2 10 2 10 1 7 C0.34 6.34 -0.32 5.68 -1 5 C-0.625 2.375 -0.625 2.375 0 0 Z " fill="#0C462A" transform="translate(176,11)"/>
<path d="M0 0 C1.4391134 0.28359887 2.87625518 0.57721399 4.3125 0.875 C5.11300781 1.03742187 5.91351563 1.19984375 6.73828125 1.3671875 C9 2 9 2 12 4 C12.66 2.68 13.32 1.36 14 0 C17 1 17 1 19 4 C19.66 4.165 20.32 4.33 21 4.5 C23 5 23 5 25 8 C26.23943662 13.52112676 26.23943662 13.52112676 25 16 C23.68 16 22.36 16 21 16 C20.505 12.04 20.505 12.04 20 8 C19.67 8.66 19.34 9.32 19 10 C18.34 10 17.68 10 17 10 C17 11.98 17 13.96 17 16 C15.68 16 14.36 16 13 16 C12.13375 16.185625 11.2675 16.37125 10.375 16.5625 C8 17 8 17 6 16 C5.59270772 13.67843403 5.25561323 11.3431213 5 9 C4.67 11.64 4.34 14.28 4 17 C2.68 16.67 1.36 16.34 0 16 C0 14.35 0 12.7 0 11 C-2.25566268 11.89396935 -2.25566268 11.89396935 -3.4375 14.5625 C-3.953125 15.366875 -4.46875 16.17125 -5 17 C-5.99 17 -6.98 17 -8 17 C-8.66 15.68 -9.32 14.36 -10 13 C-10.33 13.99 -10.66 14.98 -11 16 C-13.97 15.505 -13.97 15.505 -17 15 C-17.2165625 13.63875 -17.2165625 13.63875 -17.4375 12.25 C-17.86409473 9.78523044 -18.35074221 7.41152893 -19 5 C-16 4 -16 4 -14.0625 4.5 C-11.68227266 5.07702481 -10.30293321 4.74022853 -8 4 C-8 4.66 -8 5.32 -8 6 C-6.576875 5.4740625 -6.576875 5.4740625 -5.125 4.9375 C-2 4 -2 4 0 5 C0 3.35 0 1.7 0 0 Z M-14 6 C-13.67 7.32 -13.34 8.64 -13 10 C-13 8.68 -13 7.36 -13 6 C-13.33 6 -13.66 6 -14 6 Z M-1 6 C0 9 0 9 0 9 Z M-6 8 C-5 10 -5 10 -5 10 Z M10 8 C10 9.65 10 11.3 10 13 C10.66 13 11.32 13 12 13 C12.33 11.68 12.66 10.36 13 9 C12.01 8.67 11.02 8.34 10 8 Z " fill="#162E18" transform="translate(222,53)"/>
<path d="M0 0 C0.02706445 2.89589652 0.04687029 5.79153795 0.0625 8.6875 C0.07087891 9.50412109 0.07925781 10.32074219 0.08789062 11.16210938 C0.10442051 15.24499084 0.03035098 19.01651707 -1 23 C0.28197266 22.87431641 0.28197266 22.87431641 1.58984375 22.74609375 C2.69457031 22.64425781 3.79929687 22.54242188 4.9375 22.4375 C6.59072266 22.28087891 6.59072266 22.28087891 8.27734375 22.12109375 C9.17582031 22.08113281 10.07429688 22.04117188 11 22 C12 23 12 23 12 32 C4.74 31.67 -2.52 31.34 -10 31 C-11.19469928 25.0265036 -11.22256908 19.38502073 -11.25 13.3125 C-11.270625 12.15943359 -11.29125 11.00636719 -11.3125 9.81835938 C-11.31765625 8.71943359 -11.3228125 7.62050781 -11.328125 6.48828125 C-11.3374707 5.48321533 -11.34681641 4.47814941 -11.35644531 3.44262695 C-11.23881836 2.63656006 -11.12119141 1.83049316 -11 1 C-6.8204355 -1.78637633 -4.85331323 -0.79562512 0 0 Z " fill="#11482E" transform="translate(337,12)"/>
<path d="M0 0 C0.72960937 0.04189453 1.45921875 0.08378906 2.2109375 0.12695312 C2.95601562 0.14951172 3.70109375 0.17207031 4.46875 0.1953125 C6.3003465 0.25401752 8.13090403 0.34369556 9.9609375 0.43945312 C10.5625 2.28710937 10.5625 2.28710937 10.9609375 4.43945312 C7.60967905 9.46634079 3.0278845 14.11972923 -2.0390625 17.43945312 C-2.6990625 17.43945312 -3.3590625 17.43945312 -4.0390625 17.43945312 C-4.3690625 19.41945313 -4.6990625 21.39945313 -5.0390625 23.43945312 C-6.0290625 23.76945312 -7.0190625 24.09945312 -8.0390625 24.43945312 C-8.6578125 23.61445312 -9.2765625 22.78945313 -9.9140625 21.93945312 C-10.6153125 21.11445312 -11.3165625 20.28945313 -12.0390625 19.43945312 C-12.6990625 19.43945312 -13.3590625 19.43945312 -14.0390625 19.43945312 C-14.3690625 20.42945312 -14.6990625 21.41945313 -15.0390625 22.43945312 C-16.9140625 22.25195312 -16.9140625 22.25195312 -19.0390625 21.43945312 C-20.2890625 18.87695312 -20.2890625 18.87695312 -21.0390625 16.43945312 C-19.7190625 16.76945312 -18.3990625 17.09945312 -17.0390625 17.43945312 C-16.58015625 16.63121094 -16.12125 15.82296875 -15.6484375 14.99023438 C-15.03484375 13.92160156 -14.42125 12.85296875 -13.7890625 11.75195312 C-13.18578125 10.69621094 -12.5825 9.64046875 -11.9609375 8.55273438 C-11.00960937 7.01166016 -11.00960937 7.01166016 -10.0390625 5.43945312 C-9.471875 4.49070312 -8.9046875 3.54195312 -8.3203125 2.56445312 C-5.56044712 -0.00638038 -3.70641108 -0.08423662 0 0 Z " fill="#0A7143" transform="translate(90.0390625,26.560546875)"/>
<path d="M0 0 C3.12436512 -0.49009649 5.89177863 -0.65821158 9 0 C13.96693541 4.42311037 15.37312515 11.81128011 17 18 C17.33 18.99 17.66 19.98 18 21 C19.65 20.67 21.3 20.34 23 20 C23.33 20.66 23.66 21.32 24 22 C23.34 22 22.68 22 22 22 C21.67 23.65 21.34 25.3 21 27 C20.34 27 19.68 27 19 27 C19 27.66 19 28.32 19 29 C15.7 28.67 12.4 28.34 9 28 C8.43410156 26.49566406 7.86820312 24.99132812 7.28515625 23.44140625 C6.54441256 21.48171726 5.80351944 19.52208474 5.0625 17.5625 C4.50272461 16.07266602 4.50272461 16.07266602 3.93164062 14.55273438 C3.57392578 13.60849609 3.21621094 12.66425781 2.84765625 11.69140625 C2.51773682 10.81685791 2.18781738 9.94230957 1.84790039 9.04125977 C1.17007683 7.04282248 1.17007683 7.04282248 0 6 C-0.04080783 4.00041636 -0.04254356 1.99954746 0 0 Z " fill="#0B4C2F" transform="translate(113,11)"/>
<path d="M0 0 C1.45742463 -0.08096803 2.91612807 -0.13917774 4.375 -0.1875 C5.18710938 -0.22230469 5.99921875 -0.25710938 6.8359375 -0.29296875 C7.55007812 -0.19628906 8.26421875 -0.09960938 9 0 C9.66 0.99 10.32 1.98 11 3 C9.88147781 4.98283479 8.75498675 6.96117623 7.625 8.9375 C6.99851562 10.03964844 6.37203125 11.14179688 5.7265625 12.27734375 C4 15 4 15 2 16 C0.29297265 16.06996014 -1.41668003 16.08440154 -3.125 16.0625 C-4.03507812 16.05347656 -4.94515625 16.04445313 -5.8828125 16.03515625 C-6.93082031 16.01775391 -6.93082031 16.01775391 -8 16 C-8.33 15.01 -8.66 14.02 -9 13 C-8.34 12.67 -7.68 12.34 -7 12 C-7.33 11.01 -7.66 10.02 -8 9 C-9.11375 9.12375 -9.11375 9.12375 -10.25 9.25 C-13.78157027 8.92894816 -14.76630364 7.64734383 -17 5 C-13.22777911 3.24836544 -10.333361 2.77509973 -6.1875 2.875 C-4.72376953 2.90207031 -4.72376953 2.90207031 -3.23046875 2.9296875 C-2.49441406 2.95289063 -1.75835937 2.97609375 -1 3 C-0.67 2.01 -0.34 1.02 0 0 Z " fill="#59AA4B" transform="translate(89,9)"/>
<path d="M0 0 C0.98871094 -0.02578125 1.97742188 -0.0515625 2.99609375 -0.078125 C3.84300781 0.03015625 4.68992187 0.1384375 5.5625 0.25 C6.2225 1.24 6.8825 2.23 7.5625 3.25 C9.61253955 4.44232613 9.61253955 4.44232613 11.5625 5.25 C12.5525 4.59 13.5425 3.93 14.5625 3.25 C15.5525 3.91 16.5425 4.57 17.5625 5.25 C17.5625 5.91 17.5625 6.57 17.5625 7.25 C18.2225 7.25 18.8825 7.25 19.5625 7.25 C19.5625 7.91 19.5625 8.57 19.5625 9.25 C18.5725 9.25 17.5825 9.25 16.5625 9.25 C16.2325 8.59 15.9025 7.93 15.5625 7.25 C12.97472792 10.30580974 12.97472792 10.30580974 12.5625 14.25 C6.59976175 17.06573751 0.8947014 16.00822476 -5.4375 15.25 C-6.35490621 12.12645029 -6.57210306 9.31313562 -6.5625 6.0625 C-6.56507813 5.18207031 -6.56765625 4.30164062 -6.5703125 3.39453125 C-6.30869441 -0.82983139 -3.65403171 0.05702 0 0 Z M-0.4375 4.25 C-0.1075 4.91 0.2225 5.57 0.5625 6.25 C1.5525 6.25 2.5425 6.25 3.5625 6.25 C2.42945008 9.64914975 1.43731525 10.30254451 -1.4375 12.25 C-0.15875 12.270625 1.12 12.29125 2.4375 12.3125 C3.15679687 12.32410156 3.87609375 12.33570312 4.6171875 12.34765625 C6.64435404 12.37649242 6.64435404 12.37649242 8.5625 11.25 C7.94972388 8.28824877 7.30877478 6.86941217 5.5625 4.25 C2.47884129 3.9997843 2.47884129 3.9997843 -0.4375 4.25 Z " fill="#1D3320" transform="translate(259.4375,53.75)"/>
<path d="M0 0 C2.3125 -0.25 2.3125 -0.25 5 0 C6.97610386 2.04424538 8 3.1176825 8 6 C8.66 6 9.32 6 10 6 C13 12.625 13 12.625 13 16 C12.34 16 11.68 16 11 16 C11 16.99 11 17.98 11 19 C10.01 19 9.02 19 8 19 C8 18.34 8 17.68 8 17 C5.36 17.99 2.72 18.98 0 20 C1.08733452 25.12600561 2.22637492 30.05918728 4 35 C3.34 35 2.68 35 2 35 C0.35039571 32.63278807 -1.15225515 30.28625111 -2.625 27.8125 C-3.25535156 26.80219727 -3.25535156 26.80219727 -3.8984375 25.77148438 C-6.1202688 22.07444366 -7.60595408 19.45809076 -7 15 C-6.0925 14.71125 -5.185 14.4225 -4.25 14.125 C-1.10623356 13.12884377 -1.10623356 13.12884377 1.25 11.8125 C1.8275 11.544375 2.405 11.27625 3 11 C3.66 11.33 4.32 11.66 5 12 C4.175 11.13375 3.35 10.2675 2.5 9.375 C0.34134101 6.82109359 0.0123706 6.13360249 -0.3125 2.625 C-0.1578125 1.325625 -0.1578125 1.325625 0 0 Z M2 2 C3.41167747 7.26170694 5.74850232 10.72171358 9 15 C10.32213005 12.11018025 10.32213005 12.11018025 9.109375 9.7734375 C8.66078125 8.98195313 8.2121875 8.19046875 7.75 7.375 C7.31171875 6.57835937 6.8734375 5.78171875 6.421875 4.9609375 C5.07359494 2.70097865 5.07359494 2.70097865 2 2 Z " fill="#6EB342" transform="translate(41,29)"/>
<path d="M0 0 C1.42131189 0.24529092 2.84013562 0.5082344 4.25 0.8125 C4.4975 1.59625 4.745 2.38 5 3.1875 C6.40389099 6.13567108 7.25675737 6.7149777 10.25 7.8125 C9.26 8.3075 9.26 8.3075 8.25 8.8125 C8.58 10.1325 8.91 11.4525 9.25 12.8125 C12.3245356 12.0361068 12.3245356 12.0361068 14.25 9.8125 C14 11.6875 14 11.6875 13.25 13.8125 C9.96603819 16.21231825 6.20028193 16.33574184 2.25 16.8125 C1.239375 17.080625 0.22875 17.34875 -0.8125 17.625 C-4.85503947 17.88303443 -6.64165857 16.25476827 -9.75 13.8125 C-9.55708309 9.38505682 -9.18438477 5.71746827 -7.25 1.6875 C-4.30672227 -0.5199583 -3.53750754 -0.37266196 0 0 Z M-2.75 4.8125 C-3.41 6.4625 -4.07 8.1125 -4.75 9.8125 C-3.76 10.8025 -2.77 11.7925 -1.75 12.8125 C0.56 12.1525 2.87 11.4925 5.25 10.8125 C5.25 9.4925 5.25 8.1725 5.25 6.8125 C2.02208445 4.6605563 0.96599191 4.61163557 -2.75 4.8125 Z " fill="#1E3620" transform="translate(124.75,53.1875)"/>
<path d="M0 0 C0 4.20638378 -2.08496458 6.21904518 -4.4921875 9.55078125 C-6.11861434 11.98235914 -6.11861434 11.98235914 -6.96875 14.92578125 C-8.10453759 18.31163289 -9.66428346 20.89761563 -11.625 23.875 C-12.25664063 24.84179688 -12.88828125 25.80859375 -13.5390625 26.8046875 C-14.26222656 27.89136719 -14.26222656 27.89136719 -15 29 C-19.27056661 27.25050318 -20.36216132 25.09149779 -22.25 21.04296875 C-23.14686826 18.59993699 -23.32251441 16.5801153 -23 14 C-22.01 13.67 -21.02 13.34 -20 13 C-19.34 14.32 -18.68 15.64 -18 17 C-16.33388095 17.042721 -14.66617115 17.04063832 -13 17 C-11.63709042 15.83990094 -11.63709042 15.83990094 -11.5625 12.6875 C-11.07979585 9.5231061 -10.59241873 7.68720662 -9 5 C-8.67 4.34 -8.34 3.68 -8 3 C-6.15234375 2.1484375 -6.15234375 2.1484375 -3.9375 1.375 C-3.20402344 1.11460938 -2.47054687 0.85421875 -1.71484375 0.5859375 C-1.14894531 0.39257812 -0.58304688 0.19921875 0 0 Z " fill="#4D9D4C" transform="translate(67,45)"/>
<path d="M0 0 C0.9583374 0.00523682 1.9166748 0.01047363 2.90405273 0.01586914 C4.45576172 0.02070313 4.45576172 0.02070313 6.03881836 0.02563477 C7.12743164 0.03401367 8.21604492 0.04239258 9.33764648 0.05102539 C10.97636719 0.05779297 10.97636719 0.05779297 12.64819336 0.06469727 C15.35723144 0.07652713 18.06616248 0.09300996 20.77514648 0.11352539 C21.57467786 3.40048772 21.87173584 4.82375731 20.77514648 8.11352539 C16.15514648 8.11352539 11.53514648 8.11352539 6.77514648 8.11352539 C6.77514648 7.78352539 6.77514648 7.45352539 6.77514648 7.11352539 C10.73514648 7.11352539 14.69514648 7.11352539 18.77514648 7.11352539 C18.77514648 5.79352539 18.77514648 4.47352539 18.77514648 3.11352539 C17.49897461 3.05293945 16.22280273 2.99235352 14.90795898 2.92993164 C13.23867633 2.84552971 11.56940611 2.76088153 9.90014648 2.67602539 C9.05838867 2.63670898 8.21663086 2.59739258 7.34936523 2.55688477 C6.54370117 2.51499023 5.73803711 2.4730957 4.90795898 2.42993164 C4.16433105 2.39327393 3.42070312 2.35661621 2.65454102 2.31884766 C0.77514648 2.11352539 0.77514648 2.11352539 -1.22485352 1.11352539 C-1.25417924 4.30100568 -1.27176091 7.48845067 -1.28735352 10.67602539 C-1.29573242 11.5712793 -1.30411133 12.4665332 -1.31274414 13.38891602 C-1.3159668 14.26870117 -1.31918945 15.14848633 -1.32250977 16.05493164 C-1.32774658 16.85616455 -1.3329834 17.65739746 -1.33837891 18.48291016 C-1.19904777 21.71149722 -0.68186966 24.91441241 -0.22485352 28.11352539 C6.37514648 28.44352539 12.97514648 28.77352539 19.77514648 29.11352539 C19.44514648 27.13352539 19.11514648 25.15352539 18.77514648 23.11352539 C20.42514648 22.78352539 22.07514648 22.45352539 23.77514648 22.11352539 C23.77514648 23.10352539 23.77514648 24.09352539 23.77514648 25.11352539 C23.11514648 25.11352539 22.45514648 25.11352539 21.77514648 25.11352539 C21.77514648 27.09352539 21.77514648 29.07352539 21.77514648 31.11352539 C17.79599489 31.14239523 13.81686995 31.16027945 9.83764648 31.17602539 C8.13318359 31.18859375 8.13318359 31.18859375 6.39428711 31.20141602 C5.31469727 31.20463867 4.23510742 31.20786133 3.12280273 31.21118164 C1.62245483 31.21903687 1.62245483 31.21903687 0.09179688 31.22705078 C-2.22485352 31.11352539 -2.22485352 31.11352539 -3.22485352 30.11352539 C-3.32488641 27.97999365 -3.35566399 25.84314997 -3.35766602 23.70727539 C-3.35895508 22.40661133 -3.36024414 21.10594727 -3.36157227 19.76586914 C-3.35947754 19.08508301 -3.35738281 18.40429688 -3.35522461 17.70288086 C-3.34987592 15.62224024 -3.35517032 13.5418155 -3.36157227 11.46118164 C-3.3602832 10.16051758 -3.35899414 8.85985352 -3.35766602 7.51977539 C-3.35653809 6.31643555 -3.35541016 5.1130957 -3.35424805 3.87329102 C-3.18025316 0.16227562 -3.18025316 0.16227562 0 0 Z " fill="#1E4731" transform="translate(271.224853515625,11.886474609375)"/>
<path d="M0 0 C0.05390357 2.93774463 0.0936255 5.87450232 0.125 8.8125 C0.14175781 9.64587891 0.15851563 10.47925781 0.17578125 11.33789062 C0.18222656 12.14033203 0.18867188 12.94277344 0.1953125 13.76953125 C0.20578613 14.50792236 0.21625977 15.24631348 0.22705078 16.00708008 C0 18 0 18 -2 21 C-2.77040851 14.93303301 -3.09706112 9.11485027 -3 3 C-4.65 3 -6.3 3 -8 3 C-8 11.58 -8 20.16 -8 29 C-5.628125 29.020625 -3.25625 29.04125 -0.8125 29.0625 C-0.07491455 29.071604 0.6626709 29.08070801 1.42260742 29.09008789 C5.08425139 29.10541685 8.44312041 28.87713341 12 28 C12 29.32 12 30.64 12 32 C4.74 31.67 -2.52 31.34 -10 31 C-11.19469928 25.0265036 -11.22256908 19.38502073 -11.25 13.3125 C-11.270625 12.15943359 -11.29125 11.00636719 -11.3125 9.81835938 C-11.31765625 8.71943359 -11.3228125 7.62050781 -11.328125 6.48828125 C-11.3374707 5.48321533 -11.34681641 4.47814941 -11.35644531 3.44262695 C-11.23881836 2.63656006 -11.12119141 1.83049316 -11 1 C-6.8204355 -1.78637633 -4.85331323 -0.79562512 0 0 Z " fill="#143821" transform="translate(337,12)"/>
<path d="M0 0 C3.12695296 -0.49050242 5.89025741 -0.66341175 9 0 C11.6819734 2.25850392 13.03604216 4.64315857 14 8 C13.80535227 11.03240671 13.08420829 13.10877789 12 16 C10.68 16 9.36 16 8 16 C7.67 16.66 7.34 17.32 7 18 C6.34 18 5.68 18 5 18 C4.15321949 16.13103445 3.32313789 14.25449819 2.5 12.375 C2.0359375 11.33085937 1.571875 10.28671875 1.09375 9.2109375 C-0.02767398 5.91875709 -0.207138 3.44884777 0 0 Z " fill="#164728" transform="translate(113,11)"/>
<path d="M0 0 C0.72960937 0.04189453 1.45921875 0.08378906 2.2109375 0.12695312 C2.95601562 0.14951172 3.70109375 0.17207031 4.46875 0.1953125 C6.3003465 0.25401752 8.13090403 0.34369556 9.9609375 0.43945312 C10.5625 2.28710937 10.5625 2.28710937 10.9609375 4.43945312 C8.44268197 8.21683641 5.20816667 11.28242477 1.9609375 14.43945312 C1.3009375 14.10945313 0.6409375 13.77945313 -0.0390625 13.43945312 C-0.0390625 12.77945313 -0.0390625 12.11945312 -0.0390625 11.43945312 C0.6209375 11.10945313 1.2809375 10.77945313 1.9609375 10.43945312 C2.36822978 8.11788715 2.70532427 5.78257443 2.9609375 3.43945312 C-2.92198246 3.90154739 -2.92198246 3.90154739 -8.0390625 6.43945312 C-8.1834375 7.36757813 -8.3278125 8.29570313 -8.4765625 9.25195312 C-9.20436521 13.37616847 -11.02107176 14.64229098 -14.0390625 17.43945312 C-15.33426245 19.60565857 -15.33426245 19.60565857 -16.0390625 21.43945312 C-17.0290625 21.43945312 -18.0190625 21.43945312 -19.0390625 21.43945312 C-19.6990625 19.78945313 -20.3590625 18.13945313 -21.0390625 16.43945312 C-19.7190625 16.76945312 -18.3990625 17.09945312 -17.0390625 17.43945312 C-16.58015625 16.63121094 -16.12125 15.82296875 -15.6484375 14.99023438 C-15.03484375 13.92160156 -14.42125 12.85296875 -13.7890625 11.75195312 C-13.18578125 10.69621094 -12.5825 9.64046875 -11.9609375 8.55273438 C-11.00960937 7.01166016 -11.00960937 7.01166016 -10.0390625 5.43945312 C-9.471875 4.49070312 -8.9046875 3.54195312 -8.3203125 2.56445312 C-5.56044712 -0.00638038 -3.70641108 -0.08423662 0 0 Z " fill="#186E46" transform="translate(90.0390625,26.560546875)"/>
<path d="M0 0 C0.66 0.66 1.32 1.32 2 2 C4.58354218 2.16687448 4.58354218 2.16687448 7 2 C7 3.32 7 4.64 7 6 C6.34 6 5.68 6 5 6 C4.9071875 6.8971875 4.9071875 6.8971875 4.8125 7.8125 C4 10 4 10 2 11.75 C-3.04879924 13.85366635 -7.8944438 13.68752856 -13.0625 12 C-13.701875 11.67 -14.34125 11.34 -15 11 C-14.67 9.35 -14.34 7.7 -14 6 C-11.66666667 6 -9.33333333 6 -7 6 C-3.90424656 5.32920026 -3.90424656 5.32920026 -1 4 C-0.03122943 1.96756452 -0.03122943 1.96756452 0 0 Z " fill="#09472B" transform="translate(257,29)"/>
<path d="M0 0 C2.58404159 3.50095957 3.04022442 5.39663374 2.75 9.75 C2 13 2 13 1 15 C-2 14 -2 14 -4 13 C-4.99 13 -5.98 13 -7 13 C-7 11.68 -7 10.36 -7 9 C-8.32 9.33 -9.64 9.66 -11 10 C-11.42940617 4.76124473 -11.42940617 4.76124473 -11 2 C-7.51639512 -1.38114591 -4.49530356 -1.66130784 0 0 Z " fill="#0C4A2D" transform="translate(224,12)"/>
<path d="M0 0 C8.35206612 1.61652893 8.35206612 1.61652893 11 5 C11.66 5.33 12.32 5.66 13 6 C13 5.34 13 4.68 13 4 C14.32 3.67 15.64 3.34 17 3 C16.60404157 4.48484412 16.18249294 5.9628831 15.75 7.4375 C15.51796875 8.26121094 15.2859375 9.08492187 15.046875 9.93359375 C14 12 14 12 11.890625 12.78515625 C11.26671875 12.85605469 10.6428125 12.92695312 10 13 C9.34 11.68 8.68 10.36 8 9 C7.67 9.99 7.34 10.98 7 12 C4.03 11.505 4.03 11.505 1 11 C0.7834375 9.63875 0.7834375 9.63875 0.5625 8.25 C0.07533901 5.13728293 0.07533901 5.13728293 -0.625 2.6875 C-0.74875 2.130625 -0.8725 1.57375 -1 1 C-0.67 0.67 -0.34 0.34 0 0 Z M4 2 C4.33 3.32 4.66 4.64 5 6 C5 4.68 5 3.36 5 2 C4.67 2 4.34 2 4 2 Z " fill="#1E3520" transform="translate(204,57)"/>
<path d="M0 0 C1.65 0 3.3 0 5 0 C5 8.25 5 16.5 5 25 C4.01 25 3.02 25 2 25 C2 24.34 2 23.68 2 23 C1.34 23 0.68 23 0 23 C0 15.41 0 7.82 0 0 Z " fill="#094C29" transform="translate(329,15)"/>
<path d="M0 0 C0.99 0.33 1.98 0.66 3 1 C3 1.66 3 2.32 3 3 C3.99 3.33 4.98 3.66 6 4 C5.67 5.65 5.34 7.3 5 9 C4.34 9 3.68 9 3 9 C3 9.99 3 10.98 3 12 C3.99 12.33 4.98 12.66 6 13 C5.67 13.66 5.34 14.32 5 15 C1.9375 15.625 1.9375 15.625 -1 16 C-1.33 13.36 -1.66 10.72 -2 8 C-4.31 8 -6.62 8 -9 8 C-9 6.68 -9 5.36 -9 4 C-5.25 2.875 -5.25 2.875 -3 4 C-2.67 3.34 -2.34 2.68 -2 2 C-1.34 1.34 -0.68 0.68 0 0 Z " fill="#122B17" transform="translate(193,54)"/>
<path d="M0 0 C1.2684375 0.2475 1.2684375 0.2475 2.5625 0.5 C6.09138856 1.01329288 9.43932689 1.07121346 13 1 C15.16 5.32 15.16 5.32 14.5 8.125 C13 10 13 10 9.7421875 10.609375 C8.46601563 10.65578125 7.18984375 10.7021875 5.875 10.75 C4.59367187 10.80671875 3.31234375 10.8634375 1.9921875 10.921875 C1.00476563 10.94765625 0.01734375 10.9734375 -1 11 C-0.125 6.25 -0.125 6.25 1 4 C0.34 3.34 -0.32 2.68 -1 2 C-0.67 1.34 -0.34 0.68 0 0 Z " fill="#164830" transform="translate(277,22)"/>
<path d="M0 0 C2.31 0 4.62 0 7 0 C8.42944945 2.35438733 9.08661261 3.48032433 8.625 6.25 C8.41875 6.8275 8.2125 7.405 8 8 C7.01 8 6.02 8 5 8 C4.67 7.34 4.34 6.68 4 6 C3.01 7.485 3.01 7.485 2 9 C1.34 9 0.68 9 0 9 C0.99 10.485 0.99 10.485 2 12 C2 13.32 2 14.64 2 16 C0.68 16 -0.64 16 -2 16 C-2 14.68 -2 13.36 -2 12 C-3.32 12.33 -4.64 12.66 -6 13 C-6.33 11.02 -6.66 9.04 -7 7 C-4.525 7.99 -4.525 7.99 -2 9 C-2.99 7.68 -3.98 6.36 -5 5 C-4.01 4.67 -3.02 4.34 -2 4 C-2 4.66 -2 5.32 -2 6 C-1.01 6 -0.02 6 1 6 C1 5.34 1 4.68 1 4 C0.34 4 -0.32 4 -1 4 C-0.67 2.68 -0.34 1.36 0 0 Z " fill="#0E2416" transform="translate(278,57)"/>
<path d="M0 0 C1.17949219 0.01804687 2.35898438 0.03609375 3.57421875 0.0546875 C4.92966797 0.08949219 4.92966797 0.08949219 6.3125 0.125 C5.9825 1.445 5.6525 2.765 5.3125 4.125 C4.43207031 4.06699219 3.55164063 4.00898438 2.64453125 3.94921875 C-4.5943008 3.47935899 -4.5943008 3.47935899 -10.9375 6.4375 C-12.80606875 9.05958497 -12.80606875 9.05958497 -13.6875 12.125 C-14.3475 12.125 -15.0075 12.125 -15.6875 12.125 C-16.0175 16.085 -16.3475 20.045 -16.6875 24.125 C-17.6775 24.125 -18.6675 24.125 -19.6875 24.125 C-20.0175 23.465 -20.3475 22.805 -20.6875 22.125 C-21.6775 22.455 -22.6675 22.785 -23.6875 23.125 C-23.6875 22.465 -23.6875 21.805 -23.6875 21.125 C-22.6975 20.465 -21.7075 19.805 -20.6875 19.125 C-19.6595275 17.22353174 -18.70969632 15.27905734 -17.8125 13.3125 C-13.7911092 4.98033792 -9.83721829 -0.1947964 0 0 Z " fill="#70A260" transform="translate(82.6875,8.875)"/>
<path d="M0 0 C0.99 0.33 1.98 0.66 3 1 C3 1.66 3 2.32 3 3 C3.8971875 3.433125 3.8971875 3.433125 4.8125 3.875 C7 5 7 5 10 7 C10.99 6.67 11.98 6.34 13 6 C13.73323796 3.98491642 13.73323796 3.98491642 14 2 C14.66 2 15.32 2 16 2 C14.35821735 6.77609498 11.73453298 10.79382904 9 15 C8.01 14.67 7.02 14.34 6 14 C6 13.01 6 12.02 6 11 C5.34 11 4.68 11 4 11 C3.1361871 9.54735962 2.28419546 8.0876837 1.4375 6.625 C0.72400391 5.40683594 0.72400391 5.40683594 -0.00390625 4.1640625 C-0.33261719 3.44992188 -0.66132812 2.73578125 -1 2 C-0.67 1.34 -0.34 0.68 0 0 Z " fill="#173F2F" transform="translate(64,59)"/>
<path d="M0 0 C0 0.66 0 1.32 0 2 C3.3 2 6.6 2 10 2 C10 2.33 10 2.66 10 3 C8.88625 3.103125 7.7725 3.20625 6.625 3.3125 C5.42875 3.539375 4.2325 3.76625 3 4 C2.01 5.485 2.01 5.485 1 7 C-2.46499741 8.1969991 -5.32780758 9 -9 9 C-9.6875 7.3125 -9.6875 7.3125 -10 5 C-7.33729205 -0.45221153 -5.82801009 -1.38031818 0 0 Z " fill="#A4C83A" transform="translate(37,10)"/>
<path d="M0 0 C2.3125 -0.25 2.3125 -0.25 5 0 C6.97610386 2.04424538 8 3.1176825 8 6 C8.66 6 9.32 6 10 6 C13 12.625 13 12.625 13 16 C12.34 16 11.68 16 11 16 C11 16.99 11 17.98 11 19 C10.01 19 9.02 19 8 19 C6.24974884 16.54964837 5.07129001 14.18713626 4 11.375 C3.18136723 8.95131032 3.18136723 8.95131032 1.375 7.5625 C0 6 0 6 -0.1875 2.8125 C-0.125625 1.884375 -0.06375 0.95625 0 0 Z M2 2 C3.41167747 7.26170694 5.74850232 10.72171358 9 15 C10.32213005 12.11018025 10.32213005 12.11018025 9.109375 9.7734375 C8.66078125 8.98195313 8.2121875 8.19046875 7.75 7.375 C7.31171875 6.57835937 6.8734375 5.78171875 6.421875 4.9609375 C5.07359494 2.70097865 5.07359494 2.70097865 2 2 Z " fill="#84AF65" transform="translate(41,29)"/>
<path d="M0 0 C2.475 0.99 2.475 0.99 5 2 C5.66 1.34 6.32 0.68 7 0 C7 0.99 7 1.98 7 3 C7.99 3 8.98 3 10 3 C10 3.66 10 4.32 10 5 C10.66 5.33 11.32 5.66 12 6 C11.34 6.66 10.68 7.32 10 8 C10.33 8.99 10.66 9.98 11 11 C10.34 11 9.68 11 9 11 C9 10.34 9 9.68 9 9 C8.21625 9.185625 7.4325 9.37125 6.625 9.5625 C4 10 4 10 2 9 C1.67 9.99 1.34 10.98 1 12 C0.87625 11.195625 0.7525 10.39125 0.625 9.5625 C0.315625 8.2940625 0.315625 8.2940625 0 7 C-0.66 6.67 -1.32 6.34 -2 6 C-1.49396008 3.83125748 -1.00016187 2.00032373 0 0 Z " fill="#5DB248" transform="translate(71,15)"/>
<path d="M0 0 C4.455 0.99 4.455 0.99 9 2 C8.67 2.66 8.34 3.32 8 4 C5.93359375 4.6328125 5.93359375 4.6328125 3.4375 5.125 C2.61121094 5.29257812 1.78492188 5.46015625 0.93359375 5.6328125 C0.29550781 5.75398438 -0.34257812 5.87515625 -1 6 C-0.67 7.65 -0.34 9.3 0 11 C-0.33 10.34 -0.66 9.68 -1 9 C-3.3140622 8.26924352 -5.64828869 7.59861742 -8 7 C-8 6.34 -8 5.68 -8 5 C-9.32 4.34 -10.64 3.68 -12 3 C-11.34 2.34 -10.68 1.68 -10 1 C-7.6171875 1.0234375 -7.6171875 1.0234375 -4.875 1.375 C-3.96492188 1.48585938 -3.05484375 1.59671875 -2.1171875 1.7109375 C-1.06917969 1.85402344 -1.06917969 1.85402344 0 2 C0 1.34 0 0.68 0 0 Z " fill="#09492C" transform="translate(314,12)"/>
<path d="M0 0 C0.33 0.66 0.66 1.32 1 2 C1.66 1.67 2.32 1.34 3 1 C5.3329866 0.95977609 7.66706666 0.95679753 10 1 C9.01 1.66 8.02 2.32 7 3 C7.33 4.98 7.66 6.96 8 9 C6.68 9 5.36 9 4 9 C3.67 9.66 3.34 10.32 3 11 C2.34 10.34 1.68 9.68 1 9 C-0.32 9 -1.64 9 -3 9 C-3 8.34 -3 7.68 -3 7 C-3.66 6.67 -4.32 6.34 -5 6 C-4.01 5.67 -3.02 5.34 -2 5 C-2 4.34 -2 3.68 -2 3 C-1.34 3 -0.68 3 0 3 C0 2.01 0 1.02 0 0 Z " fill="#06462A" transform="translate(154,12)"/>
<path d="M0 0 C0.72960937 0.04189453 1.45921875 0.08378906 2.2109375 0.12695312 C2.95601562 0.14951172 3.70109375 0.17207031 4.46875 0.1953125 C6.3003465 0.25401752 8.13090403 0.34369556 9.9609375 0.43945312 C9.9609375 0.76945312 9.9609375 1.09945313 9.9609375 1.43945312 C5.0109375 1.76945312 0.0609375 2.09945313 -5.0390625 2.43945312 C-5.5959375 3.98632812 -6.1528125 5.53320312 -6.7265625 7.12695312 C-8.48776971 11.57071082 -10.44691466 14.22542611 -14.0390625 17.43945312 C-15.33426245 19.60565857 -15.33426245 19.60565857 -16.0390625 21.43945312 C-17.0290625 21.43945312 -18.0190625 21.43945312 -19.0390625 21.43945312 C-19.6990625 19.78945313 -20.3590625 18.13945313 -21.0390625 16.43945312 C-19.7190625 16.76945312 -18.3990625 17.09945312 -17.0390625 17.43945312 C-16.58015625 16.63121094 -16.12125 15.82296875 -15.6484375 14.99023438 C-15.03484375 13.92160156 -14.42125 12.85296875 -13.7890625 11.75195312 C-13.18578125 10.69621094 -12.5825 9.64046875 -11.9609375 8.55273438 C-11.00960937 7.01166016 -11.00960937 7.01166016 -10.0390625 5.43945312 C-9.471875 4.49070312 -8.9046875 3.54195312 -8.3203125 2.56445312 C-5.56044712 -0.00638038 -3.70641108 -0.08423662 0 0 Z " fill="#346746" transform="translate(90.0390625,26.560546875)"/>
<path d="M0 0 C1.98 0 3.96 0 6 0 C6.28875 0.969375 6.5775 1.93875 6.875 2.9375 C7.64214682 6.10664203 7.64214682 6.10664203 10 7 C10.72693904 8.97888961 11.39816251 10.97954558 12 13 C11.34 13 10.68 13 10 13 C9.67 12.34 9.34 11.68 9 11 C6.9754262 12.93254772 5.57894208 14.63158688 4 17 C2 14 2 14 2 11 C2.99 11 3.98 11 5 11 C5 10.34 5 9.68 5 9 C5.33 8.67 5.66 8.34 6 8 C3.525 7.01 3.525 7.01 1 6 C1.66 5.01 2.32 4.02 3 3 C2.01 2.01 1.02 1.02 0 0 Z " fill="#174932" transform="translate(180,12)"/>
<path d="M0 0 C2.62506802 -0.02690844 5.24986173 -0.04679404 7.875 -0.0625 C8.62136719 -0.07087891 9.36773437 -0.07925781 10.13671875 -0.08789062 C15.7734375 -0.11328125 15.7734375 -0.11328125 18 1 C18 1.99 18 2.98 18 4 C15.39619004 4.19476139 12.79224467 4.38108614 10.1875 4.5625 C9.44951172 4.61857422 8.71152344 4.67464844 7.95117188 4.73242188 C4.63211484 4.95769724 2.18767436 5.06255812 -1 4 C-0.67 2.68 -0.34 1.36 0 0 Z " fill="#0B4C30" transform="translate(272,14)"/>
<path d="M0 0 C2.74733244 2.3726962 4.11557547 4.46230188 5 8 C4.125 11.8125 4.125 11.8125 3 15 C1.68 15 0.36 15 -1 15 C-1.33 15.66 -1.66 16.32 -2 17 C-2.66 17 -3.32 17 -4 17 C-4.6875 13.6875 -4.6875 13.6875 -5 10 C-3.5625 8.0625 -3.5625 8.0625 -2 7 C-1.34 7.66 -0.68 8.32 0 9 C1.10844919 5.67465243 0.84454356 3.37817425 0 0 Z " fill="#1A5232" transform="translate(122,12)"/>
<path d="M0 0 C0.66 0.33 1.32 0.66 2 1 C2.4140625 2.9609375 2.4140625 2.9609375 2.625 5.375 C2.69976562 6.16648437 2.77453125 6.95796875 2.8515625 7.7734375 C2.96749782 9.51246725 3 11.25711002 3 13 C-0.75 14.125 -0.75 14.125 -3 13 C-2.67 11.35 -2.34 9.7 -2 8 C-4.51083114 9.25541557 -4.87125446 10.50063488 -6 13 C-6.625 10.6875 -6.625 10.6875 -7 8 C-6.34 7.01 -5.68 6.02 -5 5 C-4.01 5 -3.02 5 -2 5 C-1.34 3.35 -0.68 1.7 0 0 Z " fill="#093F23" transform="translate(126,21)"/>
<path d="M0 0 C0.66 0.66 1.32 1.32 2 2 C1.64808594 2.52207031 1.29617187 3.04414062 0.93359375 3.58203125 C-3.14306463 9.65976476 -7.09129016 15.81313679 -11 22 C-11.99 21.01 -12.98 20.02 -14 19 C-11.53846154 14.2 -11.53846154 14.2 -8.8125 13.1875 C-8.214375 13.125625 -7.61625 13.06375 -7 13 C-6.9175 11.741875 -6.835 10.48375 -6.75 9.1875 C-6.37676971 6.13133894 -6.26889825 5.27757239 -4.0625 3 C-2 2 -2 2 0 2 C0 1.34 0 0.68 0 0 Z " fill="#195A3F" transform="translate(92,39)"/>
<path d="M0 0 C0.22429688 0.64453125 0.44859375 1.2890625 0.6796875 1.953125 C1.82889456 4.24388852 1.82889456 4.24388852 4.3828125 4.609375 C5.28773437 4.65578125 6.19265625 4.7021875 7.125 4.75 C8.03507812 4.80671875 8.94515625 4.8634375 9.8828125 4.921875 C10.58148438 4.94765625 11.28015625 4.9734375 12 5 C12 5.66 12 6.32 12 7 C12.66 7 13.32 7 14 7 C14.33 8.32 14.66 9.64 15 11 C13.68 11 12.36 11 11 11 C10.67 11.99 10.34 12.98 10 14 C9.67 12.68 9.34 11.36 9 10 C3.72 10 -1.56 10 -7 10 C-7 9.67 -7 9.34 -7 9 C-1.555 8.505 -1.555 8.505 4 8 C2.35 6.35 0.7 4.7 -1 3 C-0.67 2.01 -0.34 1.02 0 0 Z M8 7 C8 7.66 8 8.32 8 9 C9.32 9.33 10.64 9.66 12 10 C11.67 9.01 11.34 8.02 11 7 C10.01 7 9.02 7 8 7 Z " fill="#A2B665" transform="translate(30,18)"/>
<path d="M0 0 C4.29 0 8.58 0 13 0 C11 2 11 2 8.375 2.125 C7.59125 2.08375 6.8075 2.0425 6 2 C6 4.31 6 6.62 6 9 C6.99 9.33 7.98 9.66 9 10 C10.25 12.375 10.25 12.375 11 15 C10.67 15.99 10.34 16.98 10 18 C8.32480882 15.56798137 6.65974866 13.13002202 5 10.6875 C4.52304687 9.99720703 4.04609375 9.30691406 3.5546875 8.59570312 C2.87792969 7.59506836 2.87792969 7.59506836 2.1875 6.57421875 C1.55908203 5.65515747 1.55908203 5.65515747 0.91796875 4.7175293 C0 3 0 3 0 0 Z " fill="#A2C646" transform="translate(23,29)"/>
<path d="M0 0 C0.33 0.99 0.66 1.98 1 3 C0.34 3 -0.32 3 -1 3 C-1 4.98 -1 6.96 -1 9 C-8.92 9 -16.84 9 -25 9 C-24.67 8.01 -24.34 7.02 -24 6 C-17.07 6.33 -10.14 6.66 -3 7 C-3.33 5.02 -3.66 3.04 -4 1 C-2.68 0.67 -1.36 0.34 0 0 Z " fill="#153A29" transform="translate(294,34)"/>
<path d="M0 0 C0 3.33896168 -0.59422625 4.40480889 -2.3125 7.1875 C-2.74175781 7.90292969 -3.17101563 8.61835937 -3.61328125 9.35546875 C-4.07089844 9.89816406 -4.52851562 10.44085938 -5 11 C-5.99 11 -6.98 11 -8 11 C-8.66 12.65 -9.32 14.3 -10 16 C-10.33 16 -10.66 16 -11 16 C-11.28358209 8.62686567 -11.28358209 8.62686567 -9 5 C-8.67 4.34 -8.34 3.68 -8 3 C-6.15234375 2.1484375 -6.15234375 2.1484375 -3.9375 1.375 C-3.20402344 1.11460938 -2.47054687 0.85421875 -1.71484375 0.5859375 C-1.14894531 0.39257812 -0.58304688 0.19921875 0 0 Z " fill="#4DA549" transform="translate(67,45)"/>
<path d="M0 0 C0.66 0 1.32 0 2 0 C2 0.66 2 1.32 2 2 C2.99 2.33 3.98 2.66 5 3 C5.125 10.75 5.125 10.75 4 13 C5.65 12.67 7.3 12.34 9 12 C9.33 12.99 9.66 13.98 10 15 C7.1875 15.625 7.1875 15.625 4 16 C3.01 15.34 2.02 14.68 1 14 C0.77734375 11.9765625 0.77734375 11.9765625 0.9375 9.625 C1.16809889 6.08915031 0.80386299 4.0742879 -1 1 C-0.67 0.67 -0.34 0.34 0 0 Z " fill="#103422" transform="translate(185,28)"/>
<path d="M0 0 C0.66 0 1.32 0 2 0 C1.67 1.65 1.34 3.3 1 5 C7.27 5 13.54 5 20 5 C20 5.33 20 5.66 20 6 C16.04 6 12.08 6 8 6 C8.33 6.99 8.66 7.98 9 9 C8.34 9 7.68 9 7 9 C7 9.66 7 10.32 7 11 C6.34 11 5.68 11 5 11 C5 10.34 5 9.68 5 9 C3.68 9 2.36 9 1 9 C1.20625 9.78375 1.4125 10.5675 1.625 11.375 C1.74875 12.24125 1.8725 13.1075 2 14 C1.34 14.66 0.68 15.32 0 16 C0 10.72 0 5.44 0 0 Z " fill="#0A3E21" transform="translate(270,13)"/>
<path d="M0 0 C0.99 0.66 1.98 1.32 3 2 C3.64670437 7.09279689 3.64670437 7.09279689 3 10 C0.6875 12.0625 0.6875 12.0625 -2 13 C-2.99 12.67 -3.98 12.34 -5 12 C-5.33 11.01 -5.66 10.02 -6 9 C-4.71034824 7.62437146 -3.37310707 6.29233607 -2 5 C-1.34 5 -0.68 5 0 5 C0 3.35 0 1.7 0 0 Z " fill="#093B1D" transform="translate(363,32)"/>
<path d="M0 0 C0.66 0.66 1.32 1.32 2 2 C1.34 2 0.68 2 0 2 C-0.1546875 3.6396875 -0.1546875 3.6396875 -0.3125 5.3125 C-0.99288632 8.9618448 -1.23580631 9.81168 -4 12 C-5.20272819 14.40545638 -5.10071472 15.94996953 -5.0625 18.625 C-5.04896484 19.85089844 -5.04896484 19.85089844 -5.03515625 21.1015625 C-5.02355469 21.72804688 -5.01195312 22.35453125 -5 23 C-5.66 23.33 -6.32 23.66 -7 24 C-9.38448851 18.70113665 -8.95412352 15.26194153 -7 10 C-5.10397962 6.29414198 -2.65179922 3.20044733 0 0 Z " fill="#133929" transform="translate(202,19)"/>
<path d="M0 0 C2 2 2 2 2 5 C3.98 5 5.96 5 8 5 C8 5.66 8 6.32 8 7 C8.66 7.33 9.32 7.66 10 8 C8 11 8 11 6.1875 11.875 C3.09458341 12.05173809 1.48828389 10.72797493 -1 9 C-0.814375 8.38125 -0.62875 7.7625 -0.4375 7.125 C0.23686176 4.95839822 0.23686176 4.95839822 -1 3 C-0.67 2.01 -0.34 1.02 0 0 Z " fill="#08371F" transform="translate(135,14)"/>
<path d="M0 0 C2 2 2 2 2 5 C2.60328125 5.04253906 3.2065625 5.08507813 3.828125 5.12890625 C6 6 6 6 7.484375 8.65234375 C8.11085938 10.27849609 8.11085938 10.27849609 8.75 11.9375 C9.17796875 13.01902344 9.6059375 14.10054687 10.046875 15.21484375 C11 18 11 18 11 20 C10.34 20 9.68 20 9 20 C7.35039571 17.63278807 5.84774485 15.28625111 4.375 12.8125 C3.74464844 11.80219727 3.74464844 11.80219727 3.1015625 10.77148438 C0.8797312 7.07444366 -0.60595408 4.45809076 0 0 Z " fill="#75A653" transform="translate(34,44)"/>
<path d="M0 0 C9.67144186 -0.86010847 9.67144186 -0.86010847 13.5 2.1875 C15.8311116 4.81000055 17.04489499 6.65713246 18 10 C14.83884224 8.63016497 14.0072908 8.0109362 12 5 C8.89188713 4.19458793 8.89188713 4.19458793 5.375 3.8125 C3.59222656 3.57466797 3.59222656 3.57466797 1.7734375 3.33203125 C0.85820313 3.22246094 -0.05703125 3.11289063 -1 3 C-0.67 2.01 -0.34 1.02 0 0 Z " fill="#A9C069" transform="translate(38,9)"/>
<path d="M0 0 C1 3 1 3 0 6 C-0.66 6 -1.32 6 -2 6 C-2.33 9.96 -2.66 13.92 -3 18 C-3.99 18 -4.98 18 -6 18 C-6.33 17.34 -6.66 16.68 -7 16 C-7.99 16.33 -8.98 16.66 -10 17 C-10 16.34 -10 15.68 -10 15 C-9.01 14.34 -8.02 13.68 -7 13 C-5.8834098 11.01958006 -4.84941507 8.99160615 -3.875 6.9375 C-1.07061503 1.07061503 -1.07061503 1.07061503 0 0 Z " fill="#77AF54" transform="translate(69,15)"/>
<path d="M0 0 C0.66 0.33 1.32 0.66 2 1 C1.55090939 2.48199902 1.09043436 3.96055236 0.625 5.4375 C0.36976563 6.26121094 0.11453125 7.08492187 -0.1484375 7.93359375 C-1 10 -1 10 -3 11 C-5.3329866 11.04022391 -7.66706666 11.04320247 -10 11 C-10.66 9.35 -11.32 7.7 -12 6 C-9.03 6.33 -6.06 6.66 -3 7 C-3 6.34 -3 5.68 -3 5 C-2.34 4.67 -1.68 4.34 -1 4 C-0.34786708 1.97536745 -0.34786708 1.97536745 0 0 Z " fill="#0B3923" transform="translate(135,33)"/>
<path d="M0 0 C1.7074998 1.28062485 3.37373596 2.61767557 5 4 C5 4.66 5 5.32 5 6 C3.02 6.33 1.04 6.66 -1 7 C-0.67 4.69 -0.34 2.38 0 0 Z M-6 1 C-5.67 1 -5.34 1 -5 1 C-4.690625 1.94875 -4.38125 2.8975 -4.0625 3.875 C-3.12605258 6.86080408 -3.12605258 6.86080408 -2 9 C-3.8125 9.6875 -3.8125 9.6875 -6 10 C-7.75 8.5625 -7.75 8.5625 -9 7 C-8.01 5.02 -7.02 3.04 -6 1 Z " fill="#82BB49" transform="translate(41,35)"/>
<path d="M0 0 C0 0.66 0 1.32 0 2 C0.66 2.33 1.32 2.66 2 3 C1.34 3.66 0.68 4.32 0 5 C-0.66 5 -1.32 5 -2 5 C-2 4.34 -2 3.68 -2 3 C-5.72614153 4.11854586 -5.72614153 4.11854586 -8 7 C-8.99 7 -9.98 7 -11 7 C-10.34 4.69 -9.68 2.38 -9 0 C-5.67465243 -1.10844919 -3.37817425 -0.84454356 0 0 Z " fill="#0A1D0F" transform="translate(325,58)"/>
<path d="M0 0 C0.99 0.66 1.98 1.32 3 2 C1.73882275 5.88862987 0.54735833 7.89375599 -3 10 C-3.66 10 -4.32 10 -5 10 C-5.33 7.69 -5.66 5.38 -6 3 C-4.02 2.01 -2.04 1.02 0 0 Z " fill="#104F33" transform="translate(319,15)"/>
<path d="M0 0 C0.33 0 0.66 0 1 0 C1.66 2.97 2.32 5.94 3 9 C2.34 9 1.68 9 1 9 C1.66 10.65 2.32 12.3 3 14 C3.66 13.67 4.32 13.34 5 13 C5 13.66 5 14.32 5 15 C5.66 15.33 6.32 15.66 7 16 C4.13822943 17.43088528 2.06624227 16.59991697 -1 16 C-1.02712153 14.083412 -1.04645097 12.1667127 -1.0625 10.25 C-1.07410156 9.18265625 -1.08570313 8.1153125 -1.09765625 7.015625 C-1.01510087 4.46631499 -0.74617558 2.42066409 0 0 Z " fill="#133C24" transform="translate(297,27)"/>
<path d="M0 0 C-0.42152344 0.48210938 -0.84304687 0.96421875 -1.27734375 1.4609375 C-1.82519531 2.09257812 -2.37304688 2.72421875 -2.9375 3.375 C-3.48277344 4.00148438 -4.02804688 4.62796875 -4.58984375 5.2734375 C-6.06958624 6.95632334 -6.06958624 6.95632334 -7 9 C-7.66 9 -8.32 9 -9 9 C-9.6875 7.3125 -9.6875 7.3125 -10 5 C-7.33729205 -0.45221153 -5.82801009 -1.38031818 0 0 Z " fill="#67771F" transform="translate(37,10)"/>
<path d="M0 0 C1.33333333 2.66666667 2.66666667 5.33333333 4 8 C-2.8491921 9.56552962 -2.8491921 9.56552962 -6 9 C-8.3125 6 -8.3125 6 -10 3 C-9.01 3 -8.02 3 -7 3 C-6.67 3.99 -6.34 4.98 -6 6 C-4.68 6 -3.36 6 -2 6 C-1.34 4.02 -0.68 2.04 0 0 Z " fill="#193122" transform="translate(321,35)"/>
<path d="M0 0 C0.99 0 1.98 0 3 0 C3 0.66 3 1.32 3 2 C9.31268603 2.37552165 9.31268603 2.37552165 15 0 C15.33 1.32 15.66 2.64 16 4 C12.57310364 5.14229879 10.38897782 4.90861076 6.8125 4.5625 C5.18248047 4.40974609 5.18248047 4.40974609 3.51953125 4.25390625 C2.68808594 4.17011719 1.85664063 4.08632812 1 4 C0.67 2.68 0.34 1.36 0 0 Z " fill="#152419" transform="translate(253,65)"/>
<path d="M0 0 C2.97 0 5.94 0 9 0 C6 2 6 2 4 3 C5.32 3.99 6.64 4.98 8 6 C2.58461538 7.23076923 2.58461538 7.23076923 -0.375 6.0625 C-0.91125 5.711875 -1.4475 5.36125 -2 5 C-1.34 4.67 -0.68 4.34 0 4 C0 2.68 0 1.36 0 0 Z " fill="#132A14" transform="translate(169,63)"/>
<path d="M0 0 C0.144375 0.61875 0.28875 1.2375 0.4375 1.875 C0.93152225 4.03258322 0.93152225 4.03258322 2 6 C3.65 6 5.3 6 7 6 C6.67 6.99 6.34 7.98 6 9 C-0.75 10.125 -0.75 10.125 -3 9 C-2.5020163 5.26512223 -2.12508244 3.18762365 0 0 Z " fill="#153B26" transform="translate(205,34)"/>
<path d="M0 0 C0.33 0.99 0.66 1.98 1 3 C0.01 3.33 -0.98 3.66 -2 4 C-1.34 4.66 -0.68 5.32 0 6 C-0.66 6 -1.32 6 -2 6 C-2.33 6.66 -2.66 7.32 -3 8 C-4.9375 7.1875 -4.9375 7.1875 -7 6 C-7.33 5.01 -7.66 4.02 -8 3 C-5.30759886 -0.07702988 -4.02104508 0 0 0 Z " fill="#0C3D20" transform="translate(233,36)"/>
<path d="M0 0 C1.8125 0.1875 1.8125 0.1875 4 1 C7 5.17857143 7 5.17857143 7 8 C6.01 8.33 5.02 8.66 4 9 C3.34 7.35 2.68 5.7 2 4 C0.02 4.99 0.02 4.99 -2 6 C-1.34 4.02 -0.68 2.04 0 0 Z " fill="#82B150" transform="translate(54,20)"/>
<path d="M0 0 C0.99 0.33 1.98 0.66 3 1 C1.35 3.64 -0.3 6.28 -2 9 C-6.5 6.75 -6.5 6.75 -8 3 C-5.69 3.33 -3.38 3.66 -1 4 C-0.67 2.68 -0.34 1.36 0 0 Z " fill="#4A7F4C" transform="translate(54,65)"/>
<path d="M0 0 C0.66 0.99 1.32 1.98 2 3 C-1.74279787 5.49519858 -4.73000964 5.33165336 -9.0625 5.3125 C-10.16174805 5.33666992 -10.16174805 5.33666992 -11.28320312 5.36132812 C-13.41015625 5.36328125 -13.41015625 5.36328125 -17 5 C-17.66 4.01 -18.32 3.02 -19 2 C-18.360625 2.165 -17.72125 2.33 -17.0625 2.5 C-11.71819213 3.37254006 -6.88702272 3.92425603 -1.9375 1.5 C-1.298125 1.005 -0.65875 0.51 0 0 Z " fill="#193F2D" transform="translate(261,38)"/>
<path d="M0 0 C0.66 0 1.32 0 2 0 C2 0.66 2 1.32 2 2 C4.91482778 2.80967438 6.46113217 3.21845993 9.3125 2.0625 C9.869375 1.711875 10.42625 1.36125 11 1 C11.66 2.32 12.32 3.64 13 5 C9.98968256 5.93423645 9.13349732 6.04449911 6 5 C5.67 5.66 5.34 6.32 5 7 C4.67 6.34 4.34 5.68 4 5 C3.34 4.855625 2.68 4.71125 2 4.5625 C1.34 4.376875 0.68 4.19125 0 4 C-0.33 3.01 -0.66 2.02 -1 1 C-0.67 0.67 -0.34 0.34 0 0 Z " fill="#053D23" transform="translate(145,32)"/>
<path d="M0 0 C1.67542976 0.28604898 3.34385343 0.61781233 5 1 C4.67 4.3 4.34 7.6 4 11 C3.01 10.67 2.02 10.34 1 10 C0.234375 7.96875 0.234375 7.96875 -0.25 5.5 C-0.42015625 4.6853125 -0.5903125 3.870625 -0.765625 3.03125 C-0.84296875 2.3609375 -0.9203125 1.690625 -1 1 C-0.67 0.67 -0.34 0.34 0 0 Z " fill="#152B1B" transform="translate(204,57)"/>
<path d="M0 0 C1.2065625 0.0309375 1.2065625 0.0309375 2.4375 0.0625 C3.5625 1.8125 3.5625 1.8125 4.4375 4.0625 C3.5625 6.3125 3.5625 6.3125 2.4375 8.0625 C1.4475 7.7325 0.4575 7.4025 -0.5625 7.0625 C-0.68625 6.258125 -0.81 5.45375 -0.9375 4.625 C-1.246875 3.3565625 -1.246875 3.3565625 -1.5625 2.0625 C-2.2225 1.7325 -2.8825 1.4025 -3.5625 1.0625 C-2.5625 0.0625 -2.5625 0.0625 0 0 Z " fill="#173428" transform="translate(202.5625,10.9375)"/>
<path d="M0 0 C2.5 1.8125 2.5 1.8125 5 4 C5 4.99 5 5.98 5 7 C4.34 7 3.68 7 3 7 C3 7.66 3 8.32 3 9 C0.5625 8.1875 0.5625 8.1875 -2 7 C-2.33 6.01 -2.66 5.02 -3 4 C-2.34 4 -1.68 4 -1 4 C-0.67 2.68 -0.34 1.36 0 0 Z " fill="#143717" transform="translate(118,61)"/>
<path d="M0 0 C0.66 0.33 1.32 0.66 2 1 C2 2.65 2 4.3 2 6 C1.01 6.33 0.02 6.66 -1 7 C-1.73323796 9.01508358 -1.73323796 9.01508358 -2 11 C-2.99 10.67 -3.98 10.34 -5 10 C-4.49701212 5.59885603 -2.91227269 3.28804981 0 0 Z " fill="#095929" transform="translate(67,47)"/>
<path d="M0 0 C0.66 0.33 1.32 0.66 2 1 C2.08153933 2.58246707 2.13943557 4.16616273 2.1875 5.75 C2.22230469 6.63171875 2.25710938 7.5134375 2.29296875 8.421875 C1.94923684 11.44671583 0.99772541 12.75583602 -1 15 C-1 14.34 -1 13.68 -1 13 C-1.66 13 -2.32 13 -3 13 C-2.34 10.36 -1.68 7.72 -1 5 C-0.34 5 0.32 5 1 5 C0.67 3.35 0.34 1.7 0 0 Z " fill="#174028" transform="translate(321,17)"/>
<path d="M0 0 C0.66 0 1.32 0 2 0 C2.36368892 1.60203467 2.71561952 3.20674203 3.0625 4.8125 C3.25972656 5.70582031 3.45695312 6.59914063 3.66015625 7.51953125 C4 10 4 10 3 13 C3.33 13.99 3.66 14.98 4 16 C2.68 15.67 1.36 15.34 0 15 C0.33 11.37 0.66 7.74 1 4 C0.34 3.67 -0.32 3.34 -1 3 C-0.67 2.01 -0.34 1.02 0 0 Z " fill="#223E2E" transform="translate(355,29)"/>
<path d="M0 0 C0.66 0 1.32 0 2 0 C1.49159115 4.82630375 0.13041456 7.8601092 -2.5625 11.875 C-3.52349609 13.32519531 -3.52349609 13.32519531 -4.50390625 14.8046875 C-4.99761719 15.52914062 -5.49132812 16.25359375 -6 17 C-6.83583327 14.62392051 -7.1842383 13.45550373 -6.22265625 11.078125 C-4.61132812 8.5390625 -4.61132812 8.5390625 -3 6 C-2.34 6 -1.68 6 -1 6 C-0.67 4.02 -0.34 2.04 0 0 Z " fill="#66975A" transform="translate(77,26)"/>
<path d="M0 0 C2.31 0 4.62 0 7 0 C6.01 0.66 5.02 1.32 4 2 C4.33 3.98 4.66 5.96 5 8 C3.68 8 2.36 8 1 8 C0.67 8.66 0.34 9.32 0 10 C-0.625 7.6875 -0.625 7.6875 -1 5 C-0.34 4.01 0.32 3.02 1 2 C0.67 1.34 0.34 0.68 0 0 Z " fill="#083C23" transform="translate(157,13)"/>
<path d="M0 0 C0.33 0.99 0.66 1.98 1 3 C3.56280208 2.85845864 6.12515485 2.71191438 8.6875 2.5625 C9.40873047 2.52318359 10.12996094 2.48386719 10.87304688 2.44335938 C14.66707282 2.21814322 18.28651492 1.87160695 22 1 C22 2.32 22 3.64 22 5 C14.74 4.67 7.48 4.34 0 4 C0 2.68 0 1.36 0 0 Z " fill="#1B3C28" transform="translate(327,39)"/>
<path d="M0 0 C1.65 0 3.3 0 5 0 C5.66 1.32 6.32 2.64 7 4 C6.360625 4.61875 5.72125 5.2375 5.0625 5.875 C2.96116416 7.82597612 2.96116416 7.82597612 2 10 C1.34 10 0.68 10 0 10 C-0.20086443 6.28400809 -0.1519437 5.22791555 2 2 C1.34 1.34 0.68 0.68 0 0 Z " fill="#092616" transform="translate(371,11)"/>
<path d="M0 0 C2.31 0 4.62 0 7 0 C6.67 1.98 6.34 3.96 6 6 C5.34 6 4.68 6 4 6 C4 6.66 4 7.32 4 8 C1.03 7.505 1.03 7.505 -2 7 C-0.68 5.35 0.64 3.7 2 2 C1.34 1.34 0.68 0.68 0 0 Z " fill="#084125" transform="translate(249,13)"/>
<path d="M0 0 C2 3.75 2 3.75 2 6 C3.65 6.33 5.3 6.66 7 7 C7 7.66 7 8.32 7 9 C5.35 9.66 3.7 10.32 2 11 C0.4375 10 0.4375 10 -1 8 C-0.96726452 5.23385218 -0.49404328 2.73969453 0 0 Z " fill="#0A4D2E" transform="translate(149,25)"/>
<path d="M0 0 C0.33 0.66 0.66 1.32 1 2 C2.65 1.67 4.3 1.34 6 1 C5.34 2.65 4.68 4.3 4 6 C2.02 6 0.04 6 -2 6 C-2 5.01 -2 4.02 -2 3 C-2.66 2.67 -3.32 2.34 -4 2 C-2.68 1.34 -1.36 0.68 0 0 Z " fill="#084426" transform="translate(133,26)"/>
<path d="M0 0 C2.31 0 4.62 0 7 0 C7 3 7 3 6 5 C2.9375 5.625 2.9375 5.625 0 6 C0 4.02 0 2.04 0 0 Z " fill="#225139" transform="translate(113,11)"/>
<path d="M0 0 C0.66 1.32 1.32 2.64 2 4 C0.375 6 0.375 6 -2 8 C-5.25 8.25 -5.25 8.25 -8 8 C-6.68 7.67 -5.36 7.34 -4 7 C-4 5.02 -4 3.04 -4 1 C-2.68 0.67 -1.36 0.34 0 0 Z " fill="#54874E" transform="translate(93,17)"/>
<path d="M0 0 C2.31 0.66 4.62 1.32 7 2 C6.4375 3.9375 6.4375 3.9375 5 6 C1.375 6.75 1.375 6.75 -2 7 C-1.125 2.25 -1.125 2.25 0 0 Z " fill="#172F1F" transform="translate(318,61)"/>
<path d="M0 0 C0.99 0.33 1.98 0.66 3 1 C3.66666667 2.66666667 4.33333333 4.33333333 5 6 C5.99 6.33 6.98 6.66 8 7 C9.25 9.375 9.25 9.375 10 12 C9.67 12.99 9.34 13.98 9 15 C7.49726004 12.68923915 5.99770448 10.37652089 4.5 8.0625 C4.07074219 7.40314453 3.64148438 6.74378906 3.19921875 6.06445312 C0 1.11328125 0 1.11328125 0 0 Z " fill="#9CB268" transform="translate(24,32)"/>
<path d="M0 0 C0.66 0 1.32 0 2 0 C2.12375 0.969375 2.2475 1.93875 2.375 2.9375 C2.684375 4.4534375 2.684375 4.4534375 3 6 C3.66 6.33 4.32 6.66 5 7 C4.34 7 3.68 7 3 7 C3.33 7.99 3.66 8.98 4 10 C2.68 10 1.36 10 0 10 C-0.19412181 8.52168779 -0.38012131 7.04230684 -0.5625 5.5625 C-0.66691406 4.73878906 -0.77132812 3.91507813 -0.87890625 3.06640625 C-0.91886719 2.38449219 -0.95882812 1.70257812 -1 1 C-0.67 0.67 -0.34 0.34 0 0 Z " fill="#1A4A33" transform="translate(122,29)"/>
<path d="M0 0 C1.61949011 2.57213134 2.04408751 3.67669159 1.625 6.75 C1.41875 7.4925 1.2125 8.235 1 9 C0.01 9.33 -0.98 9.66 -2 10 C-4 7 -4 7 -3.625 4.8125 C-3.41875 4.214375 -3.2125 3.61625 -3 3 C-2.34 3 -1.68 3 -1 3 C-0.67 2.01 -0.34 1.02 0 0 Z " fill="#1F3624" transform="translate(153,60)"/>
<path d="M0 0 C2.31309705 0.11341637 4.62550185 0.24103807 6.9375 0.375 C8.86916016 0.47941406 8.86916016 0.47941406 10.83984375 0.5859375 C12.40412109 0.79089844 12.40412109 0.79089844 14 1 C14.33 1.66 14.66 2.32 15 3 C13.06325815 3.19517554 11.12555991 3.38087873 9.1875 3.5625 C8.10855469 3.66691406 7.02960938 3.77132812 5.91796875 3.87890625 C3 4 3 4 0 3 C0 2.01 0 1.02 0 0 Z " fill="#224D39" transform="translate(276,34)"/>
<path d="M0 0 C0.66 0.66 1.32 1.32 2 2 C4.58354218 2.16687448 4.58354218 2.16687448 7 2 C7 3.32 7 4.64 7 6 C3.37673261 7.2077558 2.35853631 6.54311128 -1 5 C-0.67 3.35 -0.34 1.7 0 0 Z " fill="#0F5133" transform="translate(257,29)"/>
<path d="M0 0 C2.31 0 4.62 0 7 0 C7.33 0.99 7.66 1.98 8 3 C7.34 3.66 6.68 4.32 6 5 C6 4.01 6 3.02 6 2 C4.68 3.65 3.36 5.3 2 7 C0 4 0 4 0 0 Z " fill="#51A841" transform="translate(73,24)"/>
<path d="M0 0 C0.99 0 1.98 0 3 0 C1.80100302 3.0831351 0.52299523 6.06279492 -1 9 C-2.32 8.34 -3.64 7.68 -5 7 C-4.34 6.67 -3.68 6.34 -3 6 C-2.34786708 3.97536745 -2.34786708 3.97536745 -2 2 C-1.34 2 -0.68 2 0 2 C0 1.34 0 0.68 0 0 Z " fill="#103722" transform="translate(369,21)"/>
<path d="M0 0 C3.375 -0.1875 3.375 -0.1875 7 0 C7.66 0.99 8.32 1.98 9 3 C8.01 3.99 7.02 4.98 6 6 C5.67 5.01 5.34 4.02 5 3 C3.35 3 1.7 3 0 3 C0 2.01 0 1.02 0 0 Z " fill="#67985D" transform="translate(91,9)"/>
<path d="M0 0 C0.99 0.33 1.98 0.66 3 1 C3 1.66 3 2.32 3 3 C3.8971875 3.433125 3.8971875 3.433125 4.8125 3.875 C7 5 7 5 10 7 C10 7.66 10 8.32 10 9 C7.21255223 8.07085074 5.26759581 7.00715142 2.8125 5.4375 C2.09707031 4.98246094 1.38164063 4.52742188 0.64453125 4.05859375 C-0.16951172 3.53458984 -0.16951172 3.53458984 -1 3 C-0.67 2.01 -0.34 1.02 0 0 Z " fill="#0A4B2C" transform="translate(64,59)"/>
<path d="M0 0 C1.65 0.99 3.3 1.98 5 3 C4.67 4.32 4.34 5.64 4 7 C3.34 7 2.68 7 2 7 C1.34 6.34 0.68 5.68 0 5 C-0.99 5.495 -0.99 5.495 -2 6 C-2 5.34 -2 4.68 -2 4 C-2.99 4.33 -3.98 4.66 -5 5 C-4.67 3.68 -4.34 2.36 -4 1 C-2.68 1.66 -1.36 2.32 0 3 C0 2.01 0 1.02 0 0 Z " fill="#1A6140" transform="translate(65,55)"/>
<path d="M0 0 C2.475 0.99 2.475 0.99 5 2 C4.67 2.99 4.34 3.98 4 5 C4 4.34 4 3.68 4 3 C2.68 3 1.36 3 0 3 C0 5.31 0 7.62 0 10 C-0.99 10.495 -0.99 10.495 -2 11 C-2.05399736 9.54207116 -2.09279177 8.08357288 -2.125 6.625 C-2.15980469 5.40683594 -2.15980469 5.40683594 -2.1953125 4.1640625 C-2 2 -2 2 0 0 Z " fill="#1A4632" transform="translate(306,32)"/>
<path d="M0 0 C3.375 0.3125 3.375 0.3125 7 1 C7.66 1.99 8.32 2.98 9 4 C8 5 8 5 4.5625 5.25 C3.386875 5.1675 2.21125 5.085 1 5 C0.34 4.01 -0.32 3.02 -1 2 C-0.67 1.34 -0.34 0.68 0 0 Z " fill="#1B3521" transform="translate(278,64)"/>
<path d="M0 0 C1.98 0 3.96 0 6 0 C6.33 1.32 6.66 2.64 7 4 C6.34 4 5.68 4 5 4 C4.01 5.485 4.01 5.485 3 7 C1.68 5.68 0.36 4.36 -1 3 C-0.67 2.01 -0.34 1.02 0 0 Z " fill="#0F2111" transform="translate(149,57)"/>
<path d="M0 0 C-0.4793247 4.31392226 -1.7457985 6.16569547 -5 9 C-5.66 7.68 -6.32 6.36 -7 5 C-6.34 4.34 -5.68 3.68 -5 3 C-4.505 2.46375 -4.01 1.9275 -3.5 1.375 C-2 0 -2 0 0 0 Z " fill="#135135" transform="translate(85,52)"/>
<path d="M0 0 C0 4.24645065 -1.81750806 6.38524772 -4 10 C-4.99 10 -5.98 10 -7 10 C-7.66 8.35 -8.32 6.7 -9 5 C-7.68 5.33 -6.36 5.66 -5 6 C-4.319375 4.7934375 -4.319375 4.7934375 -3.625 3.5625 C-2 1 -2 1 0 0 Z " fill="#3C7053" transform="translate(78,38)"/>
<path d="M0 0 C1.32 0.66 2.64 1.32 4 2 C3.34 4.31 2.68 6.62 2 9 C-0.0625 7.25 -0.0625 7.25 -2 5 C-1.80984746 2.78155374 -1.58477845 1.58477845 0 0 Z " fill="#56A54C" transform="translate(68,34)"/>
<path d="M0 0 C2.64 0.99 5.28 1.98 8 3 C7.01 3.495 7.01 3.495 6 4 C5.67 4.99 5.34 5.98 5 7 C4.67 5.68 4.34 4.36 4 3 C-1.28 3 -6.56 3 -12 3 C-12 2.67 -12 2.34 -12 2 C-11.21753906 1.93941406 -10.43507813 1.87882812 -9.62890625 1.81640625 C-8.61699219 1.73261719 -7.60507812 1.64882813 -6.5625 1.5625 C-5.55316406 1.48128906 -4.54382813 1.40007813 -3.50390625 1.31640625 C-1.06359221 1.26788532 -1.06359221 1.26788532 0 0 Z " fill="#AEC256" transform="translate(35,25)"/>
<path d="M0 0 C0.66 0 1.32 0 2 0 C3.6875 1.75 3.6875 1.75 5 4 C4.90530858 7.03012552 4.00388172 7.9957654 1.9375 10.25 C1.298125 10.8275 0.65875 11.405 0 12 C0.185625 10.948125 0.37125 9.89625 0.5625 8.8125 C0.95079331 5.42880118 0.88247485 3.23574112 0 0 Z " fill="#174633" transform="translate(166,22)"/>
<path d="M0 0 C1.2684375 0.2475 1.2684375 0.2475 2.5625 0.5 C6.09138856 1.01329288 9.43932689 1.07121346 13 1 C13.33 2.32 13.66 3.64 14 5 C13.34 4.67 12.68 4.34 12 4 C9.795636 3.77049681 7.58607827 3.58924067 5.375 3.4375 C4.18648438 3.35371094 2.99796875 3.26992188 1.7734375 3.18359375 C0.40058594 3.09271484 0.40058594 3.09271484 -1 3 C-0.67 2.01 -0.34 1.02 0 0 Z " fill="#235632" transform="translate(277,22)"/>
<path d="M0 0 C3.6875 0.3125 3.6875 0.3125 7 1 C6.67 2.32 6.34 3.64 6 5 C1.545 4.01 1.545 4.01 -3 3 C-2.01 2.01 -1.02 1.02 0 0 Z " fill="#1A3C2C" transform="translate(329,11)"/>
<path d="M0 0 C0.99 0.33 1.98 0.66 3 1 C3.33 2.65 3.66 4.3 4 6 C2.0625 6.5625 2.0625 6.5625 0 7 C-1 6 -1 6 -1.125 3.5 C-1 1 -1 1 0 0 Z " fill="#19331B" transform="translate(236,53)"/>
<path d="M0 0 C2.12508244 3.18762365 2.5020163 5.26512223 3 9 C1.33333333 9 -0.33333333 9 -2 9 C-3.625 7 -3.625 7 -5 5 C-4.01 4.67 -3.02 4.34 -2 4 C-2 4.66 -2 5.32 -2 6 C-1.01 6 -0.02 6 1 6 C1 5.34 1 4.68 1 4 C0.34 4 -0.32 4 -1 4 C-0.67 2.68 -0.34 1.36 0 0 Z " fill="#0B3711" transform="translate(278,57)"/>
<path d="M0 0 C0.66 0.33 1.32 0.66 2 1 C2 2.65 2 4.3 2 6 C-0.95664519 7.4783226 -3.74229737 7.06032783 -7 7 C-4.60490662 4.10067643 -2.68754757 3.49831724 1 3 C0.34 3 -0.32 3 -1 3 C-0.67 2.01 -0.34 1.02 0 0 Z " fill="#164C34" transform="translate(347,34)"/>
<path d="M0 0 C0.33 0.66 0.66 1.32 1 2 C3.02463255 2.65213292 3.02463255 2.65213292 5 3 C5 3.66 5 4.32 5 5 C2.36 5.33 -0.28 5.66 -3 6 C-3.33 5.01 -3.66 4.02 -4 3 C-2.68 2.67 -1.36 2.34 0 2 C0 1.34 0 0.68 0 0 Z " fill="#0E4A2D" transform="translate(241,28)"/>
<path d="M0 0 C1.32 0.33 2.64 0.66 4 1 C2.625 2.5 2.625 2.5 1 4 C0.34 4 -0.32 4 -1 4 C-1.33 5.65 -1.66 7.3 -2 9 C-2.66 9 -3.32 9 -4 9 C-4 7.35 -4 5.7 -4 4 C-3.34 4 -2.68 4 -2 4 C-1.34 2.68 -0.68 1.36 0 0 Z " fill="#1E462F" transform="translate(247,20)"/>
<path d="M0 0 C1.32 0.66 2.64 1.32 4 2 C3.625 3.9375 3.625 3.9375 3 6 C2.01 6.495 2.01 6.495 1 7 C0.34 6.34 -0.32 5.68 -1 5 C-1.99 4.67 -2.98 4.34 -4 4 C-3.67 3.34 -3.34 2.68 -3 2 C-2.34 2 -1.68 2 -1 2 C-0.67 1.34 -0.34 0.68 0 0 Z " fill="#074524" transform="translate(120,15)"/>
<path d="M0 0 C0.66 0.33 1.32 0.66 2 1 C1.67 2.65 1.34 4.3 1 6 C1.66 6 2.32 6 3 6 C3 7.98 3 9.96 3 12 C2.01 12 1.02 12 0 12 C-1.28571429 3.42857143 -1.28571429 3.42857143 0 0 Z " fill="#213D2B" transform="translate(156,57)"/>
<path d="M0 0 C2.475 0.495 2.475 0.495 5 1 C4.34 3.31 3.68 5.62 3 8 C2.34 8 1.68 8 1 8 C-0.35439668 5.29120665 -0.06501451 2.99066732 0 0 Z " fill="#132A14" transform="translate(163,60)"/>
<path d="M0 0 C0.99 0.66 1.98 1.32 3 2 C3 2.66 3 3.32 3 4 C2.34 4 1.68 4 1 4 C0.67 4.99 0.34 5.98 0 7 C-1.32 6.34 -2.64 5.68 -4 5 C-3.67 4.01 -3.34 3.02 -3 2 C-2.34 2 -1.68 2 -1 2 C-0.67 1.34 -0.34 0.68 0 0 Z " fill="#0F5E3D" transform="translate(77,57)"/>
<path d="M0 0 C2.97 0.495 2.97 0.495 6 1 C5.67 3.31 5.34 5.62 5 8 C2.20127563 5.47211993 0.54226981 3.79588866 0 0 Z " fill="#7FB046" transform="translate(44,25)"/>
<path d="M0 0 C2.475 0.99 2.475 0.99 5 2 C5 3.65 5 5.3 5 7 C4.01 6.67 3.02 6.34 2 6 C2 5.01 2 4.02 2 3 C1.67 3.66 1.34 4.32 1 5 C0.01 4.67 -0.98 4.34 -2 4 C-1.34 2.68 -0.68 1.36 0 0 Z " fill="#0A240E" transform="translate(240,58)"/>
<path d="M0 0 C0.33 0.99 0.66 1.98 1 3 C-4.41538462 4.23076923 -4.41538462 4.23076923 -7.375 3.0625 C-7.91125 2.711875 -8.4475 2.36125 -9 2 C-5.5647952 -0.29013653 -4.014669 -0.17842973 0 0 Z " fill="#0D2514" transform="translate(299,57)"/>
<path d="M0 0 C1.32 0.33 2.64 0.66 4 1 C5.046875 3.06640625 5.046875 3.06640625 5.75 5.5625 C5.99234375 6.38878906 6.2346875 7.21507812 6.484375 8.06640625 C6.65453125 8.70449219 6.8246875 9.34257813 7 10 C6.34 10 5.68 10 5 10 C3.35 6.7 1.7 3.4 0 0 Z " fill="#719D60" transform="translate(38,54)"/>
<path d="M0 0 C2.0625 0.6875 2.0625 0.6875 4 2 C4.875 4 4.875 4 5 6 C4.34 6.66 3.68 7.32 3 8 C2.34 7.01 1.68 6.02 1 5 C0.01 4.67 -0.98 4.34 -2 4 C-2 3.01 -2 2.02 -2 1 C-1.34 0.67 -0.68 0.34 0 0 Z " fill="#0F231A" transform="translate(311,54)"/>
<path d="M0 0 C0.66 0.33 1.32 0.66 2 1 C2.3125 3.3125 2.3125 3.3125 2 6 C-0.5 7.8125 -0.5 7.8125 -3 9 C-3.66 8.01 -4.32 7.02 -5 6 C-3.68 6 -2.36 6 -1 6 C-0.67 4.02 -0.34 2.04 0 0 Z " fill="#152E1B" transform="translate(364,36)"/>
<path d="M0 0 C0.99 0.33 1.98 0.66 3 1 C3 2.98 3 4.96 3 7 C1.35 7.33 -0.3 7.66 -2 8 C-2 6.35 -2 4.7 -2 3 C-1.34 3 -0.68 3 0 3 C0 2.01 0 1.02 0 0 Z " fill="#123020" transform="translate(264,32)"/>
<path d="M0 0 C0.99 0 1.98 0 3 0 C2.67 1.65 2.34 3.3 2 5 C0.02 5.33 -1.96 5.66 -4 6 C-3.67 4.68 -3.34 3.36 -3 2 C-2.01 2 -1.02 2 0 2 C0 1.34 0 0.68 0 0 Z " fill="#0B301A" transform="translate(363,18)"/>
<path d="M0 0 C0.33 0.66 0.66 1.32 1 2 C0.34 1.67 -0.32 1.34 -1 1 C-0.67 0.67 -0.34 0.34 0 0 Z M-3 1 C-2.34 1.33 -1.68 1.66 -1 2 C-1 6 -1 6 -3 8.25 C-3.99 9.11625 -3.99 9.11625 -5 10 C-5.66 9.67 -6.32 9.34 -7 9 C-5.68 6.36 -4.36 3.72 -3 1 Z " fill="#054A29" transform="translate(321,20)"/>
<path d="M0 0 C3.04049801 3.64859761 4.96518762 7.7444533 7 12 C6.34 12 5.68 12 5 12 C0.10204082 7.10204082 0.10204082 7.10204082 -0.3125 2.625 C-0.209375 1.75875 -0.10625 0.8925 0 0 Z " fill="#8EAA5E" transform="translate(41,29)"/>
<path d="M0 0 C0 0.99 0 1.98 0 3 C0.66 3.33 1.32 3.66 2 4 C-0.3125 4.625 -0.3125 4.625 -3 5 C-3.99 4.34 -4.98 3.68 -6 3 C-6 2.34 -6 1.68 -6 1 C-3.92446352 0.4465236 -2.15634036 0 0 0 Z " fill="#0D4F32" transform="translate(193,27)"/>
<path d="M0 0 C0.66 0.66 1.32 1.32 2 2 C1.67 2.66 1.34 3.32 1 4 C0.34 4 -0.32 4 -1 4 C-0.67 6.64 -0.34 9.28 0 12 C-0.99 12.495 -0.99 12.495 -2 13 C-3.46845421 7.52667068 -2.44038726 4.88077452 0 0 Z " fill="#244D39" transform="translate(155,20)"/>
<path d="M0 0 C1.32 0 2.64 0 4 0 C3.979375 0.78375 3.95875 1.5675 3.9375 2.375 C3.81315937 4.98114961 3.81315937 4.98114961 5 7 C3.68 6.67 2.36 6.34 1 6 C0.67 4.02 0.34 2.04 0 0 Z " fill="#054E2B" transform="translate(271,22)"/>
<path d="M0 0 C1.32 0 2.64 0 4 0 C4.33 1.98 4.66 3.96 5 6 C4.67 5.34 4.34 4.68 4 4 C3.071875 4.309375 3.071875 4.309375 2.125 4.625 C1.42375 4.74875 0.7225 4.8725 0 5 C-0.66 4.34 -1.32 3.68 -2 3 C-1.34 2.01 -0.68 1.02 0 0 Z " fill="#0E4F2F" transform="translate(139,15)"/>
<path d="M0 0 C0.66 0.66 1.32 1.32 2 2 C1.67 2.99 1.34 3.98 1 5 C0.01 5 -0.98 5 -2 5 C-2 6.98 -2 8.96 -2 11 C-2.33 11 -2.66 11 -3 11 C-3.08096803 9.54257537 -3.13917774 8.08387193 -3.1875 6.625 C-3.22230469 5.81289063 -3.25710937 5.00078125 -3.29296875 4.1640625 C-3.19628906 3.44992188 -3.09960938 2.73578125 -3 2 C-2.01 1.34 -1.02 0.68 0 0 Z " fill="#0E2410" transform="translate(226,57)"/>
<path d="M0 0 C0 0.99 0 1.98 0 3 C-3.63 2.67 -7.26 2.34 -11 2 C-6.78370866 -0.10814567 -4.60209225 -0.17700355 0 0 Z " fill="#163727" transform="translate(164,41)"/>
<path d="M0 0 C2.2477975 2.05233685 3.0022242 3.00667261 4 6 C3 7 3 7 0.4375 7.0625 C-0.7690625 7.0315625 -0.7690625 7.0315625 -2 7 C-2.33 6.01 -2.66 5.02 -3 4 C-2.01 3.34 -1.02 2.68 0 2 C0 1.34 0 0.68 0 0 Z " fill="#1F462C" transform="translate(233,36)"/>
<path d="M0 0 C0.66 0 1.32 0 2 0 C2.33 3.3 2.66 6.6 3 10 C2.01 10.495 2.01 10.495 1 11 C-0.62950412 6.87831311 -1.26264601 4.29299643 0 0 Z " fill="#1C4232" transform="translate(194,32)"/>
<path d="M0 0 C0.33 0.99 0.66 1.98 1 3 C0.34 3 -0.32 3 -1 3 C-1 3.66 -1 4.32 -1 5 C-4.75 6.125 -4.75 6.125 -7 5 C-6.67 4.01 -6.34 3.02 -6 2 C-2.9375 0.8125 -2.9375 0.8125 0 0 Z " fill="#063D21" transform="translate(186,18)"/>
<path d="M0 0 C0.99 0 1.98 0 3 0 C3.33 1.98 3.66 3.96 4 6 C3.01 6.33 2.02 6.66 1 7 C-0.0625 4.625 -0.0625 4.625 -1 2 C-0.67 1.34 -0.34 0.68 0 0 Z " fill="#0B2F1A" transform="translate(348,16)"/>
<path d="M0 0 C1.93681161 -0.08107583 3.8745934 -0.13922475 5.8125 -0.1875 C6.89144531 -0.22230469 7.97039062 -0.25710938 9.08203125 -0.29296875 C12 0 12 0 13.88671875 1.51171875 C14.25410156 2.00285156 14.62148437 2.49398438 15 3 C14.08476562 2.9278125 13.16953125 2.855625 12.2265625 2.78125 C11.03804687 2.6884375 9.84953125 2.595625 8.625 2.5 C7.44164062 2.4071875 6.25828125 2.314375 5.0390625 2.21875 C3.36213157 2.09804546 1.68126944 2 0 2 C0 1.34 0 0.68 0 0 Z " fill="#244733" transform="translate(155,12)"/>
<path d="M0 0 C1.98 0.99 1.98 0.99 4 2 C4 3.65 4 5.3 4 7 C3.01 7 2.02 7 1 7 C0.67 4.69 0.34 2.38 0 0 Z " fill="#203726" transform="translate(310,58)"/>
<path d="M0 0 C0.33 0 0.66 0 1 0 C0.67 2.64 0.34 5.28 0 8 C-1.65 8 -3.3 8 -5 8 C-4.19185349 6.66402348 -3.37836819 5.331275 -2.5625 4 C-2.11003906 3.2575 -1.65757813 2.515 -1.19140625 1.75 C-0.79824219 1.1725 -0.40507813 0.595 0 0 Z " fill="#275E3F" transform="translate(81,31)"/>
<path d="M0 0 C0.33 0.99 0.66 1.98 1 3 C-0.40445835 5.2636564 -2.1967913 7.0208685 -4 9 C-4.66 8.01 -5.32 7.02 -6 6 C-4 4 -2 2 0 0 Z " fill="#2E5F42" transform="translate(100,28)"/>
<path d="M0 0 C2.0625 2.3125 2.0625 2.3125 4 5 C3.67 5.99 3.34 6.98 3 8 C2.01 7.67 1.02 7.34 0 7 C-1.1875 3.9375 -1.1875 3.9375 -2 1 C-1.34 0.67 -0.68 0.34 0 0 Z " fill="#224A2C" transform="translate(173,14)"/>
<path d="M0 0 C1.65 0 3.3 0 5 0 C5 1.32 5 2.64 5 4 C3.35 4.33 1.7 4.66 0 5 C0 3.35 0 1.7 0 0 Z " fill="#0D5434" transform="translate(329,15)"/>
<path d="M0 0 C4.455 0.99 4.455 0.99 9 2 C8.67 2.66 8.34 3.32 8 4 C4.9375 4.625 4.9375 4.625 2 5 C2 4.34 2 3.68 2 3 C1.01 2.67 0.02 2.34 -1 2 C-0.67 1.34 -0.34 0.68 0 0 Z " fill="#0B301C" transform="translate(314,12)"/>
<path d="M0 0 C0.66 0.33 1.32 0.66 2 1 C1.34 3.64 0.68 6.28 0 9 C-0.33 8.34 -0.66 7.68 -1 7 C-1.99 6.67 -2.98 6.34 -4 6 C-2.68 4.02 -1.36 2.04 0 0 Z " fill="#0D2F1E" transform="translate(176,28)"/>
<path d="M0 0 C0.66 0.33 1.32 0.66 2 1 C3.26229508 5.47540984 3.26229508 5.47540984 2 8 C1.34 8 0.68 8 0 8 C-0.38063221 5.6739143 -0.71269945 3.33944736 -1 1 C-0.67 0.67 -0.34 0.34 0 0 Z " fill="#143C26" transform="translate(126,21)"/>
<path d="M0 0 C1.875 0.1875 1.875 0.1875 4 1 C5.25 3.5625 5.25 3.5625 6 6 C5.01 6.66 4.02 7.32 3 8 C2.87625 7.195625 2.7525 6.39125 2.625 5.5625 C2.315625 4.2940625 2.315625 4.2940625 2 3 C1.34 2.67 0.68 2.34 0 2 C0 1.34 0 0.68 0 0 Z " fill="#144228" transform="translate(172,21)"/>
<path d="M0 0 C2.1875 0.3125 2.1875 0.3125 4 1 C3.34 2.65 2.68 4.3 2 6 C0.35 5.01 -1.3 4.02 -3 3 C-1.75 1.4375 -1.75 1.4375 0 0 Z " fill="#5DA940" transform="translate(75,12)"/>
<path d="M0 0 C0.99 0.33 1.98 0.66 3 1 C3.33 1.99 3.66 2.98 4 4 C2.02 4.33 0.04 4.66 -2 5 C-2 4.01 -2 3.02 -2 2 C-1.34 2 -0.68 2 0 2 C0 1.34 0 0.68 0 0 Z " fill="#233E2F" transform="translate(123,66)"/>
<path d="M0 0 C0 3.99904969 -1.72586967 5.80200422 -4 9 C-4.93423645 5.98968256 -5.04449911 5.13349732 -4 2 C-1.9375 0.8125 -1.9375 0.8125 0 0 Z " fill="#43984D" transform="translate(67,45)"/>
<path d="M0 0 C4.95 0.99 4.95 0.99 10 2 C8 4 8 4 4.375 4.125 C3.26125 4.08375 2.1475 4.0425 1 4 C0.67 2.68 0.34 1.36 0 0 Z " fill="#182F20" transform="translate(124,40)"/>
<path d="M0 0 C0.144375 0.61875 0.28875 1.2375 0.4375 1.875 C0.93152225 4.03258322 0.93152225 4.03258322 2 6 C1.34 6 0.68 6 0 6 C0.33 6.99 0.66 7.98 1 9 C0.34 9 -0.32 9 -1 9 C-1.66 6.69 -2.32 4.38 -3 2 C-2.01 1.34 -1.02 0.68 0 0 Z " fill="#76B24E" transform="translate(53,32)"/>
<path d="M0 0 C0.99 0.99 1.98 1.98 3 3 C2.67 3.66 2.34 4.32 2 5 C-0.31 4.67 -2.62 4.34 -5 4 C-3 1 -3 1 0 0 Z " fill="#0F3B28" transform="translate(218,11)"/>
<path d="M0 0 C1.32 0 2.64 0 4 0 C5.06775224 1.96466413 6.06553465 3.96855359 7 6 C6.67 6.66 6.34 7.32 6 8 C3.7522025 5.94766315 2.9977758 4.99332739 2 2 C1.34 2 0.68 2 0 2 C0 1.34 0 0.68 0 0 Z " fill="#1E4130" transform="translate(220,12)"/>
<path d="M0 0 C0.66 0.33 1.32 0.66 2 1 C1.1875 3.9375 1.1875 3.9375 0 7 C-0.99 7.33 -1.98 7.66 -3 8 C-2.37240135 5.07120629 -1.41377341 2.63904371 0 0 Z " fill="#538E58" transform="translate(59,56)"/>
<path d="M0 0 C2.31 0 4.62 0 7 0 C6 2 6 2 3.0625 3.0625 C2.051875 3.371875 1.04125 3.68125 0 4 C-0.99 4.495 -0.99 4.495 -2 5 C-1.34 3.35 -0.68 1.7 0 0 Z " fill="#116031" transform="translate(85,28)"/>
<path d="M0 0 C1.20272819 2.40545638 1.10071472 3.94996953 1.0625 6.625 C1.05347656 7.44226563 1.04445312 8.25953125 1.03515625 9.1015625 C1.02355469 9.72804688 1.01195312 10.35453125 1 11 C0.01 11.495 0.01 11.495 -1 12 C-1.33 11.01 -1.66 10.02 -2 9 C-1.67 8.34 -1.34 7.68 -1 7 C-1.66 6.67 -2.32 6.34 -3 6 C-2.34 6 -1.68 6 -1 6 C-1.33 5.01 -1.66 4.02 -2 3 C-1.34 2.01 -0.68 1.02 0 0 Z " fill="#224332" transform="translate(145,21)"/>
<path d="M0 0 C2.0625 0.4375 2.0625 0.4375 4 1 C4 1.66 4 2.32 4 3 C1 5 1 5 -2 5 C-1.125 1.125 -1.125 1.125 0 0 Z " fill="#06482B" transform="translate(215,17)"/>
<path d="M0 0 C0.99 0.33 1.98 0.66 3 1 C2.34 2.98 1.68 4.96 1 7 C0.34 7 -0.32 7 -1 7 C-1.625 5.1875 -1.625 5.1875 -2 3 C-1.34 2.01 -0.68 1.02 0 0 Z " fill="#8FC232" transform="translate(48,13)"/>
<path d="M0 0 C0.33 0.99 0.66 1.98 1 3 C-3.625 6 -3.625 6 -7 6 C-7 5.34 -7 4.68 -7 4 C-6.34 4 -5.68 4 -5 4 C-4.67 3.01 -4.34 2.02 -4 1 C-4 1.66 -4 2.32 -4 3 C-3.01 2.67 -2.02 2.34 -1 2 C-0.67 1.34 -0.34 0.68 0 0 Z " fill="#26402B" transform="translate(138,63)"/>
<path d="M0 0 C0.33 0 0.66 0 1 0 C1.66 2.97 2.32 5.94 3 9 C2.01 9 1.02 9 0 9 C0 7.02 0 5.04 0 3 C-0.66 2.67 -1.32 2.34 -2 2 C-1.34 1.34 -0.68 0.68 0 0 Z " fill="#18311C" transform="translate(309,58)"/>
<path d="M0 0 C3.63 0.33 7.26 0.66 11 1 C11 1.33 11 1.66 11 2 C10.09507812 2.09087891 10.09507812 2.09087891 9.171875 2.18359375 C7.97304687 2.30927734 7.97304687 2.30927734 6.75 2.4375 C5.96109375 2.51871094 5.1721875 2.59992187 4.359375 2.68359375 C2.17635361 2.97634993 0.1226818 3.42064419 -2 4 C-1.34 2.68 -0.68 1.36 0 0 Z " fill="#0C4028" transform="translate(214,34)"/>
<path d="M0 0 C0.66 0.33 1.32 0.66 2 1 C0.90931332 4.77545388 0.0916909 7.47043472 -3 10 C-2.21302675 6.58978257 -1.12880057 3.31114834 0 0 Z " fill="#1E342A" transform="translate(137,32)"/>
<path d="M0 0 C2.125 0.375 2.125 0.375 4 1 C4 1.66 4 2.32 4 3 C3.34 3 2.68 3 2 3 C2 3.66 2 4.32 2 5 C1.34 5 0.68 5 0 5 C0 4.34 0 3.68 0 3 C-0.66 2.67 -1.32 2.34 -2 2 C-1.34 1.34 -0.68 0.68 0 0 Z " fill="#0F5231" transform="translate(367,18)"/>
<path d="M0 0 C2.5 1.375 2.5 1.375 5 3 C5 3.66 5 4.32 5 5 C3.68 5.33 2.36 5.66 1 6 C0.67 4.02 0.34 2.04 0 0 Z " fill="#152A18" transform="translate(271,64)"/>
<path d="M0 0 C0.33 0 0.66 0 1 0 C1.66 2.31 2.32 4.62 3 7 C1.68 7 0.36 7 -1 7 C-1.33 5.35 -1.66 3.7 -2 2 C-1.34 2 -0.68 2 0 2 C0 1.34 0 0.68 0 0 Z " fill="#0F2512" transform="translate(302,62)"/>
<path d="M0 0 C0.33 0.66 0.66 1.32 1 2 C2.98 1.67 4.96 1.34 7 1 C7 1.66 7 2.32 7 3 C4.69 3.66 2.38 4.32 0 5 C-0.33 4.01 -0.66 3.02 -1 2 C-0.67 1.34 -0.34 0.68 0 0 Z " fill="#0F2713" transform="translate(292,61)"/>
<path d="M0 0 C1.4540625 0.0309375 1.4540625 0.0309375 2.9375 0.0625 C2.6075 1.0525 2.2775 2.0425 1.9375 3.0625 C0.9475 3.3925 -0.0425 3.7225 -1.0625 4.0625 C-2.0525 3.0725 -3.0425 2.0825 -4.0625 1.0625 C-3.0625 0.0625 -3.0625 0.0625 0 0 Z " fill="#112F15" transform="translate(135.0625,56.9375)"/>
<path d="M0 0 C2.97 0.33 5.94 0.66 9 1 C7 3 7 3 4.5 3.3125 C3.2625 3.1578125 3.2625 3.1578125 2 3 C1.34 2.01 0.68 1.02 0 0 Z " fill="#04331D" transform="translate(205,38)"/>
<path d="M0 0 C0.66 0 1.32 0 2 0 C2 0.66 2 1.32 2 2 C3.32 2.66 4.64 3.32 6 4 C4.35 4.33 2.7 4.66 1 5 C0.34 3.68 -0.32 2.36 -1 1 C-0.67 0.67 -0.34 0.34 0 0 Z " fill="#082D19" transform="translate(145,32)"/>
<path d="M0 0 C0.66 1.32 1.32 2.64 2 4 C0.02 4.99 0.02 4.99 -2 6 C-2 5.01 -2 4.02 -2 3 C-2.66 2.67 -3.32 2.34 -4 2 C-2.68 1.34 -1.36 0.68 0 0 Z " fill="#09371E" transform="translate(133,26)"/>
<path d="M0 0 C1.65 0.33 3.3 0.66 5 1 C3.60804085 3.7839183 1.84424221 3.97898997 -1 5 C-0.67 3.35 -0.34 1.7 0 0 Z " fill="#5CA941" transform="translate(67,21)"/>
<path d="M0 0 C3.37462715 0.54723683 5.08235 1.0549 8 3 C7.67 3.99 7.34 4.98 7 6 C7 5.34 7 4.68 7 4 C4.69 3.34 2.38 2.68 0 2 C0 1.34 0 0.68 0 0 Z " fill="#0D3424" transform="translate(306,17)"/>
<path d="M0 0 C0.99 0.33 1.98 0.66 3 1 C2.67 2.32 2.34 3.64 2 5 C0.68 5 -0.64 5 -2 5 C-1.34 3.35 -0.68 1.7 0 0 Z " fill="#044425" transform="translate(368,14)"/>
<path d="M0 0 C0.99 0.33 1.98 0.66 3 1 C2.67 1.99 2.34 2.98 2 4 C1.34 4 0.68 4 0 4 C0 4.66 0 5.32 0 6 C-0.66 6 -1.32 6 -2 6 C-1.49396008 3.83125748 -1.00016187 2.00032373 0 0 Z " fill="#6AB04B" transform="translate(71,15)"/>
<path d="M0 0 C1.98 0 3.96 0 6 0 C6 0.99 6 1.98 6 3 C4.02 3.33 2.04 3.66 0 4 C0 2.68 0 1.36 0 0 Z " fill="#163222" transform="translate(176,11)"/>
<path d="M0 0 C2.64 0 5.28 0 8 0 C5.23776722 2.76223278 2.79293383 2.57856291 -1 3 C-0.67 2.01 -0.34 1.02 0 0 Z " fill="#9EA86B" transform="translate(38,9)"/>
<path d="M0 0 C2 1 2 1 2 1 Z " fill="#000000" transform="translate(267,70)"/>
<path d="M0 0 C2 1 2 1 2 1 Z " fill="#000000" transform="translate(269,69)"/>
<path d="" fill="#202020" transform="translate(0,0)"/>
<path d="" fill="#000000" transform="translate(0,0)"/>
<path d="" fill="#000000" transform="translate(0,0)"/>
<path d="" fill="#000000" transform="translate(0,0)"/>
<path d="M0 0 C2 1 2 1 2 1 Z " fill="#121212" transform="translate(287,58)"/>
<path d="" fill="#202020" transform="translate(0,0)"/>
<path d="" fill="#151515" transform="translate(0,0)"/>
<path d="" fill="#000000" transform="translate(0,0)"/>
<path d="" fill="#000000" transform="translate(0,0)"/>
<path d="" fill="#000000" transform="translate(0,0)"/>
<path d="" fill="#000000" transform="translate(0,0)"/>
<path d="" fill="#002B00" transform="translate(0,0)"/>
<path d="" fill="#000000" transform="translate(0,0)"/>
<path d="" fill="#004040" transform="translate(0,0)"/>
<path d="" fill="#000000" transform="translate(0,0)"/>
<path d="" fill="#000000" transform="translate(0,0)"/>
<path d="" fill="#000000" transform="translate(0,0)"/>
<path d="" fill="#004040" transform="translate(0,0)"/>
<path d="" fill="#1C1C1C" transform="translate(0,0)"/>
<path d="" fill="#000000" transform="translate(0,0)"/>
<path d="" fill="#2B2B2B" transform="translate(0,0)"/>
<path d="" fill="#000000" transform="translate(0,0)"/>
<path d="" fill="#000000" transform="translate(0,0)"/>
<path d="" fill="#000000" transform="translate(0,0)"/>
<path d="" fill="#000000" transform="translate(0,0)"/>
<path d="" fill="#000000" transform="translate(0,0)"/>
<path d="" fill="#000000" transform="translate(0,0)"/>
<path d="" fill="#404040" transform="translate(0,0)"/>
<path d="" fill="#2B2B2B" transform="translate(0,0)"/>
<path d="" fill="#000000" transform="translate(0,0)"/>
<path d="" fill="#000000" transform="translate(0,0)"/>
<path d="" fill="#000000" transform="translate(0,0)"/>
<path d="" fill="#004000" transform="translate(0,0)"/>
<path d="" fill="#000000" transform="translate(0,0)"/>
<path d="" fill="#005500" transform="translate(0,0)"/>
<path d="" fill="#244924" transform="translate(0,0)"/>
<path d="" fill="#000000" transform="translate(0,0)"/>
<path d="" fill="#333333" transform="translate(0,0)"/>
<path d="" fill="#333333" transform="translate(0,0)"/>
<path d="" fill="#005500" transform="translate(0,0)"/>
<path d="" fill="#555555" transform="translate(0,0)"/>
<path d="" fill="#2B2B2B" transform="translate(0,0)"/>
<path d="" fill="#000000" transform="translate(0,0)"/>
<path d="" fill="#000000" transform="translate(0,0)"/>
<path d="" fill="#005500" transform="translate(0,0)"/>
<path d="" fill="#000000" transform="translate(0,0)"/>
<path d="" fill="#000000" transform="translate(0,0)"/>
<path d="" fill="#000000" transform="translate(0,0)"/>
<path d="" fill="#000000" transform="translate(0,0)"/>
<path d="" fill="#005500" transform="translate(0,0)"/>
<path d="" fill="#000000" transform="translate(0,0)"/>
<path d="" fill="#000000" transform="translate(0,0)"/>
<path d="" fill="#2B2B2B" transform="translate(0,0)"/>
<path d="" fill="#000000" transform="translate(0,0)"/>
<path d="" fill="#000000" transform="translate(0,0)"/>
<path d="" fill="#244924" transform="translate(0,0)"/>
<path d="" fill="#000000" transform="translate(0,0)"/>
<path d="" fill="#404040" transform="translate(0,0)"/>
<path d="" fill="#000000" transform="translate(0,0)"/>
<path d="" fill="#005555" transform="translate(0,0)"/>
<path d="" fill="#000000" transform="translate(0,0)"/>
<path d="" fill="#555555" transform="translate(0,0)"/>
<path d="" fill="#000000" transform="translate(0,0)"/>
<path d="" fill="#000000" transform="translate(0,0)"/>
<path d="" fill="#000000" transform="translate(0,0)"/>
<path d="" fill="#000000" transform="translate(0,0)"/>
<path d="" fill="#555555" transform="translate(0,0)"/>
<path d="" fill="#333333" transform="translate(0,0)"/>
<path d="" fill="#000000" transform="translate(0,0)"/>
<path d="" fill="#000000" transform="translate(0,0)"/>
<path d="" fill="#000000" transform="translate(0,0)"/>
<path d="" fill="#000000" transform="translate(0,0)"/>
<path d="" fill="#000000" transform="translate(0,0)"/>
<path d="" fill="#000000" transform="translate(0,0)"/>
</svg>
